<?xml version="1.0" encoding="UTF-8"?>
<svg xmlns="http://www.w3.org/2000/svg" xmlns:xlink="http://www.w3.org/1999/xlink" width="px" height="60px" viewBox="0 0 60 59" version="1.1">
<g id="surface1">
<path style=" stroke:none;fill-rule:nonzero;fill:rgb(0%,0%,35.686275%);fill-opacity:1;" d="M 10.574219 0 L 49.136719 0 C 54.980469 0 59.710938 4.765625 59.710938 10.664062 L 59.710938 48.050781 C 59.710938 53.945312 54.980469 58.714844 49.136719 58.714844 L 10.574219 58.714844 C 4.726562 58.714844 0 53.945312 0 48.050781 L 0 10.664062 C 0 4.765625 4.726562 0 10.574219 0 Z M 10.574219 0 "/>
<path style=" stroke:none;fill-rule:nonzero;fill:rgb(60.000002%,60.000002%,100%);fill-opacity:1;" d="M 23.984375 35.128906 L 14.726562 35.128906 L 12.835938 41.050781 C 12.789062 41.277344 12.589844 41.425781 12.363281 41.402344 L 7.6875 41.402344 C 7.414062 41.402344 7.339844 41.25 7.414062 40.949219 L 15.425781 17.789062 C 15.5 17.539062 15.574219 17.3125 15.671875 17.011719 C 15.773438 16.484375 15.824219 15.933594 15.824219 15.382812 C 15.796875 15.253906 15.898438 15.128906 16.023438 15.105469 L 22.464844 15.105469 C 22.640625 15.105469 22.765625 15.179688 22.789062 15.304688 L 31.871094 40.898438 C 31.945312 41.175781 31.871094 41.300781 31.621094 41.300781 L 26.421875 41.300781 C 26.246094 41.324219 26.074219 41.199219 26.023438 41.023438 L 23.984375 35.003906 Z M 16.171875 30.136719 L 22.492188 30.136719 C 22.339844 29.609375 22.140625 28.980469 21.917969 28.328125 C 21.695312 27.652344 21.46875 26.921875 21.246094 26.171875 C 20.996094 25.394531 20.773438 24.640625 20.523438 23.863281 C 20.277344 23.085938 20.050781 22.355469 19.851562 21.628906 C 19.652344 20.925781 19.480469 20.273438 19.304688 19.671875 L 19.257812 19.671875 C 19.03125 20.75 18.757812 21.828125 18.410156 22.910156 C 18.039062 24.113281 17.664062 25.367188 17.265625 26.621094 C 16.941406 27.902344 16.542969 29.082031 16.171875 30.136719 Z M 16.171875 30.136719 "/>
<path style=" stroke:none;fill-rule:nonzero;fill:rgb(60.000002%,60.000002%,100%);fill-opacity:1;" d="M 46.523438 32.871094 L 38.636719 32.871094 C 38.738281 33.648438 38.984375 34.425781 39.40625 35.101562 C 39.855469 35.78125 40.476562 36.308594 41.222656 36.609375 C 42.21875 37.035156 43.3125 37.261719 44.410156 37.234375 C 45.28125 37.210938 46.148438 37.136719 46.996094 36.960938 C 47.765625 36.859375 48.515625 36.660156 49.210938 36.382812 C 49.335938 36.28125 49.410156 36.332031 49.410156 36.582031 L 49.410156 40.421875 C 49.410156 40.523438 49.382812 40.625 49.359375 40.722656 C 49.308594 40.796875 49.261719 40.847656 49.183594 40.898438 C 48.390625 41.25 47.570312 41.5 46.699219 41.652344 C 45.527344 41.878906 44.359375 41.976562 43.164062 41.953125 C 41.273438 41.953125 39.683594 41.652344 38.386719 41.074219 C 37.167969 40.546875 36.097656 39.71875 35.253906 38.691406 C 34.457031 37.710938 33.886719 36.609375 33.535156 35.402344 C 33.1875 34.226562 33.015625 32.996094 33.015625 31.742188 C 33.015625 30.386719 33.214844 29.054688 33.636719 27.75 C 34.035156 26.496094 34.65625 25.34375 35.503906 24.3125 C 36.324219 23.308594 37.34375 22.507812 38.511719 21.929688 C 39.683594 21.351562 41.074219 21.152344 42.667969 21.152344 C 43.984375 21.128906 45.304688 21.378906 46.523438 21.929688 C 47.542969 22.382812 48.4375 23.058594 49.136719 23.9375 C 49.78125 24.789062 50.304688 25.742188 50.628906 26.796875 C 50.953125 27.800781 51.101562 28.832031 51.101562 29.859375 C 51.101562 30.460938 51.078125 30.988281 51.050781 31.464844 C 51 31.941406 50.976562 32.292969 50.953125 32.519531 C 50.925781 32.695312 50.777344 32.84375 50.605469 32.84375 C 50.453125 32.84375 50.179688 32.871094 49.78125 32.894531 C 49.382812 32.945312 48.910156 32.96875 48.339844 32.96875 C 47.765625 32.96875 47.171875 32.871094 46.523438 32.871094 Z M 38.636719 29.207031 L 43.886719 29.207031 C 44.53125 29.207031 45.007812 29.207031 45.304688 29.179688 C 45.503906 29.15625 45.703125 29.105469 45.875 28.980469 L 45.875 28.730469 C 45.875 28.402344 45.828125 28.101562 45.726562 27.800781 C 45.28125 26.394531 43.960938 25.441406 42.492188 25.492188 C 41.125 25.417969 39.832031 26.144531 39.183594 27.398438 C 38.886719 27.976562 38.710938 28.578125 38.636719 29.207031 Z M 38.636719 29.207031 "/>
</g>
</svg>
