<svg width="13" height="13" viewBox="0 0 13 13" fill="none" xmlns="http://www.w3.org/2000/svg">
    <path fill-rule="evenodd" clip-rule="evenodd"
          d="M0.950087 12.2638C0.762572 12.0763 0.657226 11.822 0.657227 11.5568C0.657226 11.2916 0.762572 11.0373 0.950088 10.8497L9.14171 2.65812L3.07117 2.65953C2.9397 2.65953 2.80951 2.63363 2.68805 2.58332C2.56658 2.53301 2.45621 2.45927 2.36325 2.3663C2.27028 2.27333 2.19654 2.16297 2.14623 2.0415C2.09591 1.92004 2.07002 1.78985 2.07002 1.65838C2.07002 1.52691 2.09591 1.39672 2.14623 1.27525C2.19654 1.15379 2.27028 1.04342 2.36325 0.950458C2.45622 0.857493 2.56658 0.783748 2.68805 0.733435C2.80951 0.683122 2.9397 0.657226 3.07117 0.657227L11.5555 0.657227C11.687 0.657061 11.8173 0.682844 11.9388 0.733098C12.0604 0.783351 12.1708 0.857089 12.2638 0.950087C12.3568 1.04309 12.4305 1.15352 12.4808 1.27506C12.531 1.3966 12.5568 1.52686 12.5567 1.65838V10.1427C12.5567 10.2742 12.5308 10.4044 12.4804 10.5258C12.4301 10.6473 12.3564 10.7577 12.2634 10.8506C12.1705 10.9436 12.0601 11.0173 11.9386 11.0677C11.8172 11.118 11.687 11.1439 11.5555 11.1439C11.29 11.1439 11.0353 11.0384 10.8476 10.8506C10.7546 10.7577 10.6809 10.6473 10.6306 10.5258C10.5802 10.4044 10.5544 10.2742 10.5544 10.1427L10.5558 4.07217L2.36414 12.2638C2.17663 12.4513 1.9223 12.5567 1.65712 12.5567C1.39193 12.5567 1.1376 12.4513 0.950087 12.2638Z"
          fill="#FAFAFA"/>
</svg>
