<?xml version="1.0" encoding="UTF-8"?>
<svg xmlns="http://www.w3.org/2000/svg" xmlns:xlink="http://www.w3.org/1999/xlink" width="px" height="60px" viewBox="0 0 73 60" version="1.1">
<g id="surface1">
<path style=" stroke:none;fill-rule:nonzero;fill:rgb(100%,100%,100%);fill-opacity:1;" d="M 58.792969 43.847656 C 55.859375 46.875 51.757812 48.589844 47.316406 48.59375 C 42.871094 48.605469 38.765625 46.902344 35.832031 43.882812 C 34.398438 42.410156 33.347656 40.722656 32.695312 38.917969 C 32.058594 37.144531 31.816406 35.246094 31.976562 33.371094 C 32.136719 31.535156 32.667969 29.753906 33.550781 28.144531 C 34.410156 26.570312 35.585938 25.148438 37.039062 23.945312 C 39.890625 21.59375 43.515625 20.324219 47.316406 20.316406 C 51.113281 20.308594 54.738281 21.574219 57.589844 23.917969 C 59.042969 25.113281 60.21875 26.53125 61.074219 28.101562 C 61.957031 29.710938 62.492188 31.492188 62.648438 33.324219 C 62.8125 35.207031 62.566406 37.097656 61.929688 38.875 C 61.277344 40.675781 60.222656 42.367188 58.792969 43.847656 Z M 58.792969 43.847656 "/>
<path style=" stroke:none;fill-rule:nonzero;fill:rgb(0%,32.549021%,52.156866%);fill-opacity:1;" d="M 37.835938 33.5625 C 37.96875 31.113281 39.15625 28.953125 40.945312 27.421875 C 42.699219 25.917969 45.058594 25 47.632812 25 C 50.207031 25.003906 52.570312 25.921875 54.324219 27.421875 C 56.109375 28.957031 57.296875 31.113281 57.433594 33.5625 C 57.570312 36.078125 56.570312 38.421875 54.816406 40.152344 C 53.027344 41.917969 50.480469 43.027344 47.632812 43.027344 C 44.785156 43.027344 42.234375 41.917969 40.449219 40.152344 C 38.695312 38.421875 37.699219 36.078125 37.835938 33.5625 Z M 37.835938 33.5625 "/>
<path style=" stroke:none;fill-rule:nonzero;fill:rgb(100%,43.921569%,12.941177%);fill-opacity:1;" d="M 22.230469 38.519531 C 22.246094 39.476562 22.550781 41.339844 23 42.796875 C 23.953125 45.875 25.566406 48.726562 27.816406 51.238281 C 30.125 53.820312 32.964844 55.894531 36.246094 57.363281 C 39.695312 58.910156 43.433594 59.699219 47.3125 59.691406 C 51.191406 59.683594 54.929688 58.882812 58.375 57.324219 C 61.65625 55.835938 64.492188 53.757812 66.800781 51.167969 C 69.046875 48.644531 70.65625 45.792969 71.609375 42.710938 C 72.085938 41.175781 72.390625 39.59375 72.515625 37.992188 C 72.632812 36.429688 72.582031 34.855469 72.367188 33.300781 C 71.9375 30.253906 70.898438 27.394531 69.292969 24.789062 C 67.824219 22.398438 65.9375 20.300781 63.691406 18.535156 L 63.695312 18.53125 L 41.027344 0.910156 C 41.007812 0.894531 40.988281 0.878906 40.96875 0.863281 C 39.476562 -0.289062 36.980469 -0.289062 35.34375 0.871094 C 33.6875 2.042969 33.5 3.980469 34.96875 5.207031 L 34.964844 5.207031 L 44.417969 12.996094 L 15.59375 13.027344 L 15.554688 13.027344 C 13.171875 13.03125 10.882812 14.613281 10.429688 16.613281 C 9.964844 18.648438 11.582031 20.335938 14.0625 20.347656 L 14.058594 20.359375 L 28.667969 20.328125 L 2.597656 40.589844 C 2.5625 40.617188 2.527344 40.640625 2.5 40.664062 C 0.0429688 42.570312 -0.753906 45.742188 0.792969 47.75 C 2.363281 49.789062 5.707031 49.792969 8.195312 47.757812 L 22.421875 35.972656 C 22.421875 35.972656 22.214844 37.5625 22.230469 38.519531 Z M 58.792969 43.847656 C 55.859375 46.875 51.757812 48.589844 47.316406 48.59375 C 42.871094 48.605469 38.765625 46.902344 35.832031 43.882812 C 34.398438 42.410156 33.347656 40.722656 32.695312 38.917969 C 32.058594 37.144531 31.816406 35.246094 31.976562 33.371094 C 32.136719 31.535156 32.667969 29.753906 33.550781 28.144531 C 34.410156 26.570312 35.585938 25.148438 37.039062 23.945312 C 39.890625 21.59375 43.515625 20.324219 47.316406 20.316406 C 51.113281 20.308594 54.738281 21.574219 57.589844 23.917969 C 59.042969 25.113281 60.21875 26.53125 61.074219 28.101562 C 61.957031 29.710938 62.492188 31.492188 62.648438 33.324219 C 62.8125 35.207031 62.566406 37.097656 61.929688 38.875 C 61.277344 40.675781 60.222656 42.367188 58.792969 43.847656 Z M 58.792969 43.847656 "/>
</g>
</svg>
