<?xml version="1.0" encoding="UTF-8"?>
<svg xmlns="http://www.w3.org/2000/svg" xmlns:xlink="http://www.w3.org/1999/xlink" width="px" height="60px" viewBox="0 0 53 60" version="1.1">
<g id="surface1">
<path style=" stroke:none;fill-rule:nonzero;fill:rgb(63.137257%,47.450981%,86.274511%);fill-opacity:1;" d="M 52.996094 17.640625 C 52.996094 16.632812 52.78125 15.738281 52.347656 14.972656 C 51.925781 14.222656 51.285156 13.589844 50.433594 13.09375 C 43.375 8.996094 36.3125 4.910156 29.261719 0.808594 C 27.359375 -0.296875 25.515625 -0.257812 23.628906 0.863281 C 20.820312 2.53125 6.757812 10.644531 2.566406 13.089844 C 0.84375 14.097656 0.00390625 15.636719 0.00390625 17.636719 C 0 25.878906 0.00390625 34.121094 0 42.363281 C 0 43.347656 0.207031 44.222656 0.621094 44.976562 C 1.046875 45.75 1.691406 46.398438 2.566406 46.910156 C 6.757812 49.355469 20.820312 57.46875 23.625 59.136719 C 25.515625 60.257812 27.359375 60.296875 29.261719 59.191406 C 36.3125 55.089844 43.378906 51.003906 50.433594 46.90625 C 51.308594 46.398438 51.953125 45.75 52.378906 44.972656 C 52.792969 44.21875 53 43.347656 53 42.359375 C 53 42.359375 53 25.882812 52.996094 17.640625 Z M 52.996094 17.640625 "/>
<path style=" stroke:none;fill-rule:nonzero;fill:rgb(15.686275%,0%,40.784314%);fill-opacity:1;" d="M 26.582031 29.917969 L 0.621094 44.976562 C 1.046875 45.75 1.691406 46.398438 2.566406 46.910156 C 6.757812 49.355469 20.820312 57.46875 23.625 59.136719 C 25.515625 60.257812 27.359375 60.296875 29.261719 59.191406 C 36.3125 55.089844 43.378906 51.003906 50.433594 46.90625 C 51.308594 46.398438 51.953125 45.75 52.378906 44.972656 Z M 26.582031 29.917969 "/>
<path style=" stroke:none;fill-rule:nonzero;fill:rgb(22.352941%,0%,56.862748%);fill-opacity:1;" d="M 52.996094 17.640625 C 52.996094 16.632812 52.78125 15.738281 52.347656 14.972656 L 26.582031 29.917969 L 52.378906 44.972656 C 52.792969 44.21875 53 43.347656 53 42.359375 C 53 42.359375 53 25.882812 52.996094 17.640625 Z M 52.996094 17.640625 "/>
<path style=" stroke:none;fill-rule:nonzero;fill:rgb(100%,100%,100%);fill-opacity:1;" d="M 41.867188 24.289062 L 41.867188 27.105469 L 44.660156 27.105469 L 44.660156 24.289062 L 46.058594 24.289062 L 46.058594 27.105469 L 48.851562 27.105469 L 48.851562 28.511719 L 46.058594 28.511719 L 46.058594 31.328125 L 48.851562 31.328125 L 48.851562 32.734375 L 46.058594 32.734375 L 46.058594 35.546875 L 44.660156 35.546875 L 44.660156 32.734375 L 41.867188 32.734375 L 41.867188 35.546875 L 40.46875 35.546875 L 40.46875 32.734375 L 37.675781 32.734375 L 37.675781 31.328125 L 40.46875 31.328125 L 40.46875 28.511719 L 37.675781 28.511719 L 37.675781 27.105469 L 40.46875 27.105469 L 40.46875 24.289062 Z M 44.660156 28.511719 L 41.867188 28.511719 L 41.867188 31.328125 L 44.660156 31.328125 Z M 44.660156 28.511719 "/>
<path style=" stroke:none;fill-rule:nonzero;fill:rgb(100%,100%,100%);fill-opacity:1;" d="M 26.636719 10.15625 C 33.925781 10.15625 40.289062 14.144531 43.695312 20.070312 L 43.664062 20.011719 L 35.089844 24.984375 C 33.398438 22.105469 30.300781 20.160156 26.75 20.121094 L 26.636719 20.117188 C 21.21875 20.117188 16.828125 24.542969 16.828125 30 C 16.828125 31.785156 17.300781 33.457031 18.121094 34.902344 C 19.8125 37.875 22.992188 39.882812 26.636719 39.882812 C 30.308594 39.882812 33.503906 37.851562 35.1875 34.84375 L 35.144531 34.917969 L 43.707031 39.914062 C 40.335938 45.789062 34.0625 49.761719 26.859375 49.84375 L 26.636719 49.84375 C 19.328125 49.84375 12.945312 45.832031 9.546875 39.875 C 7.886719 36.964844 6.9375 33.59375 6.9375 30 C 6.9375 19.039062 15.757812 10.15625 26.636719 10.15625 Z M 26.636719 10.15625 "/>
</g>
</svg>
