<?xml version="1.0" encoding="UTF-8"?>
<svg xmlns="http://www.w3.org/2000/svg" xmlns:xlink="http://www.w3.org/1999/xlink" width="px" height="60px" viewBox="0 0 54 60" version="1.1">
<g id="surface1">
<path style=" stroke:none;fill-rule:evenodd;fill:rgb(0%,26.666668%,50.980395%);fill-opacity:1;" d="M 25.441406 0.410156 C 26.40625 -0.136719 27.59375 -0.136719 28.558594 0.410156 C 33.324219 3.097656 47.671875 11.195312 52.441406 13.886719 C 53.40625 14.429688 54 15.433594 54 16.523438 C 54 21.902344 54 38.097656 54 43.476562 C 54 44.566406 53.40625 45.570312 52.441406 46.113281 C 47.671875 48.804688 33.328125 56.902344 28.558594 59.59375 C 27.59375 60.136719 26.40625 60.136719 25.441406 59.59375 C 20.671875 56.902344 6.328125 48.804688 1.558594 46.113281 C 0.59375 45.570312 0 44.566406 0 43.476562 C 0 38.097656 0 21.90625 0 16.523438 C 0 15.4375 0.59375 14.429688 1.558594 13.886719 C 6.324219 11.195312 20.675781 3.097656 25.441406 0.410156 Z M 25.441406 0.410156 "/>
<path style=" stroke:none;fill-rule:evenodd;fill:rgb(39.607844%,60.392159%,82.352942%);fill-opacity:1;" d="M 0.433594 44.863281 C 0.0546875 44.355469 0 43.871094 0 43.222656 C 0 37.875 0 21.773438 0 16.421875 C 0 15.339844 0.59375 14.339844 1.554688 13.800781 C 6.304688 11.125 20.605469 3.074219 25.355469 0.402344 C 26.316406 -0.140625 27.621094 -0.128906 28.582031 0.410156 C 33.332031 3.085938 47.582031 11.066406 52.332031 13.742188 C 52.714844 13.960938 53.007812 14.21875 53.269531 14.566406 Z M 0.433594 44.863281 "/>
<path style=" stroke:none;fill-rule:evenodd;fill:rgb(100%,100%,100%);fill-opacity:1;" d="M 27 10 C 37.980469 10 46.894531 18.960938 46.894531 30 C 46.894531 41.039062 37.980469 50 27 50 C 16.019531 50 7.105469 41.039062 7.105469 30 C 7.105469 18.960938 16.019531 10 27 10 Z M 27 20 C 32.488281 20 36.949219 24.480469 36.949219 30 C 36.949219 35.519531 32.488281 40 27 40 C 21.511719 40 17.050781 35.519531 17.050781 30 C 17.050781 24.480469 21.507812 20 27 20 Z M 27 20 "/>
<path style=" stroke:none;fill-rule:evenodd;fill:rgb(0%,34.901962%,61.176473%);fill-opacity:1;" d="M 53.269531 14.578125 C 54 15.269531 53.988281 16.308594 53.988281 17.128906 C 53.988281 22.550781 53.941406 37.96875 54 43.390625 C 54.003906 43.957031 53.820312 44.550781 53.539062 45 L 26.421875 30 Z M 53.269531 14.578125 "/>
</g>
</svg>
