<svg width="54" height="60" viewBox="0 0 54 60" fill="none" xmlns="http://www.w3.org/2000/svg">
<path d="M54 0H0L4.76471 53.6842L27 60L49.2353 53.6842L54 0Z" fill="#0277BD"/>
<path d="M27 4.73684V55.1053L44.7882 50.0526L48.7588 4.73684H27Z" fill="#039BE5"/>
<path d="M41.4529 12.6316H27V18.9474H34.7824L34.3059 25.2632H27V31.5789H33.9882L33.5118 38.6842L27 40.8947V47.5263L39.5471 43.4211L40.6588 25.2632L41.4529 12.6316Z" fill="white"/>
<path d="M27 12.6316V18.9474H12.8647L12.3882 12.6316H27ZM19.6941 25.2632L20.0118 31.5789H27V25.2632H19.6941ZM20.3294 34.7368H13.9765L14.4529 43.4211L27 47.5263V40.8947L20.4882 38.6842L20.3294 34.7368Z" fill="#EEEEEE"/>
</svg>
