<?xml version="1.0" encoding="UTF-8"?>
<svg xmlns="http://www.w3.org/2000/svg" xmlns:xlink="http://www.w3.org/1999/xlink" width="px" height="60px" viewBox="0 0 40 60" version="1.1">
<g id="surface1">
<path style=" stroke:none;fill-rule:nonzero;fill:rgb(90.196079%,29.019609%,9.803922%);fill-opacity:1;" d="M 21.132812 20.113281 L 9.863281 20.113281 C 4.414062 20.113281 0 15.738281 0 10.339844 C 0 4.941406 4.414062 0.566406 9.863281 0.566406 L 21.132812 0.566406 Z M 21.132812 20.113281 "/>
<path style=" stroke:none;fill-rule:nonzero;fill:rgb(48.627451%,30.19608%,100%);fill-opacity:1;" d="M 19.722656 39.660156 L 9.863281 39.660156 C 4.414062 39.660156 0 35.285156 0 29.886719 C 0 24.488281 4.414062 20.113281 9.863281 20.113281 L 19.722656 20.113281 Z M 19.722656 39.660156 "/>
<path style=" stroke:none;fill-rule:nonzero;fill:rgb(40.000001%,73.333335%,41.568628%);fill-opacity:1;" d="M 9.863281 59.207031 C 4.414062 59.207031 0 54.832031 0 49.433594 C 0 44.035156 4.414062 39.660156 9.863281 39.660156 L 19.722656 39.660156 L 19.722656 49.433594 C 19.722656 54.832031 15.308594 59.207031 9.863281 59.207031 Z M 9.863281 59.207031 "/>
<path style=" stroke:none;fill-rule:nonzero;fill:rgb(100%,43.921569%,26.274511%);fill-opacity:1;" d="M 29.585938 20.113281 L 19.722656 20.113281 L 19.722656 0.566406 L 29.585938 0.566406 C 35.03125 0.566406 39.449219 4.941406 39.449219 10.339844 C 39.449219 15.738281 35.03125 20.113281 29.585938 20.113281 Z M 29.585938 20.113281 "/>
<path style=" stroke:none;fill-rule:nonzero;fill:rgb(16.078432%,71.372551%,96.470588%);fill-opacity:1;" d="M 29.585938 39.660156 C 35.03125 39.660156 39.449219 35.285156 39.449219 29.886719 C 39.449219 24.488281 35.03125 20.113281 29.585938 20.113281 C 24.140625 20.113281 19.722656 24.488281 19.722656 29.886719 C 19.722656 35.285156 24.140625 39.660156 29.585938 39.660156 Z M 29.585938 39.660156 "/>
</g>
</svg>
