<?xml version="1.0" encoding="UTF-8"?>
<svg xmlns="http://www.w3.org/2000/svg" xmlns:xlink="http://www.w3.org/1999/xlink" width="px" height="60px" viewBox="0 0 145 60" version="1.1">
<g id="surface1">
<path style=" stroke:none;fill-rule:nonzero;fill:rgb(33.333334%,52.549022%,64.313728%);fill-opacity:1;" d="M 16.566406 24.976562 C 17.082031 23.40625 17.855469 22.015625 18.882812 20.808594 C 19.910156 19.597656 21.191406 18.632812 22.722656 17.914062 C 24.253906 17.191406 26.035156 16.832031 28.070312 16.832031 C 30.101562 16.832031 31.886719 17.191406 33.414062 17.914062 C 34.945312 18.632812 36.226562 19.597656 37.253906 20.808594 C 38.285156 22.015625 39.054688 23.40625 39.570312 24.976562 C 40.082031 26.542969 40.339844 28.175781 40.339844 29.875 C 40.339844 31.574219 40.082031 33.207031 39.570312 34.777344 C 39.054688 36.34375 38.285156 37.734375 37.253906 38.945312 C 36.226562 40.152344 34.945312 41.113281 33.414062 41.820312 C 31.886719 42.53125 30.101562 42.882812 28.070312 42.882812 C 26.035156 42.882812 24.253906 42.53125 22.722656 41.820312 C 21.191406 41.113281 19.910156 40.152344 18.882812 38.945312 C 17.855469 37.734375 17.082031 36.34375 16.566406 34.777344 C 16.054688 33.207031 15.796875 31.574219 15.796875 29.875 C 15.796875 28.175781 16.054688 26.542969 16.566406 24.976562 Z M 19.695312 33.601562 C 20.03125 34.824219 20.558594 35.921875 21.277344 36.902344 C 21.996094 37.878906 22.917969 38.664062 24.046875 39.257812 C 25.171875 39.851562 26.511719 40.148438 28.070312 40.148438 C 29.625 40.148438 30.96875 39.851562 32.09375 39.257812 C 33.21875 38.664062 34.140625 37.878906 34.859375 36.902344 C 35.578125 35.921875 36.105469 34.824219 36.441406 33.601562 C 36.773438 32.378906 36.941406 31.140625 36.941406 29.882812 C 36.941406 28.628906 36.773438 27.390625 36.441406 26.167969 C 36.105469 24.945312 35.578125 23.84375 34.859375 22.867188 C 34.140625 21.890625 33.21875 21.105469 32.09375 20.511719 C 30.96875 19.917969 29.625 19.621094 28.070312 19.621094 C 26.511719 19.621094 25.171875 19.917969 24.046875 20.511719 C 22.917969 21.105469 21.996094 21.890625 21.277344 22.867188 C 20.558594 23.84375 20.03125 24.945312 19.695312 26.167969 C 19.363281 27.390625 19.195312 28.628906 19.195312 29.882812 C 19.195312 31.140625 19.363281 32.378906 19.695312 33.601562 Z M 19.695312 33.601562 "/>
<path style=" stroke:none;fill-rule:nonzero;fill:rgb(33.333334%,52.549022%,64.313728%);fill-opacity:1;" d="M 45.398438 26.464844 L 45.398438 28.613281 L 45.449219 28.613281 C 45.890625 27.734375 46.582031 27.09375 47.527344 26.695312 C 48.472656 26.292969 49.507812 26.09375 50.640625 26.09375 C 51.898438 26.09375 52.996094 26.320312 53.929688 26.769531 C 54.863281 27.222656 55.636719 27.828125 56.257812 28.597656 C 56.875 29.363281 57.339844 30.25 57.65625 31.253906 C 57.972656 32.253906 58.128906 33.320312 58.128906 34.445312 C 58.128906 35.570312 57.976562 36.636719 57.671875 37.640625 C 57.367188 38.640625 56.90625 39.515625 56.289062 40.265625 C 55.667969 41.011719 54.894531 41.601562 53.960938 42.027344 C 53.027344 42.457031 51.941406 42.675781 50.703125 42.675781 C 50.304688 42.675781 49.859375 42.632812 49.367188 42.550781 C 48.875 42.46875 48.386719 42.335938 47.90625 42.152344 C 47.421875 41.96875 46.964844 41.714844 46.535156 41.398438 C 46.105469 41.082031 45.746094 40.6875 45.449219 40.214844 L 45.398438 40.214844 L 45.398438 48.410156 L 42.699219 48.410156 L 42.699219 26.464844 Z M 54.972656 32.109375 C 54.773438 31.402344 54.46875 30.773438 54.0625 30.222656 C 53.652344 29.667969 53.128906 29.230469 52.492188 28.902344 C 51.851562 28.574219 51.105469 28.410156 50.25 28.410156 C 49.347656 28.410156 48.585938 28.585938 47.957031 28.933594 C 47.328125 29.28125 46.816406 29.734375 46.417969 30.296875 C 46.019531 30.859375 45.734375 31.5 45.554688 32.214844 C 45.378906 32.933594 45.289062 33.660156 45.289062 34.394531 C 45.289062 35.171875 45.382812 35.925781 45.570312 36.652344 C 45.761719 37.378906 46.058594 38.015625 46.464844 38.570312 C 46.875 39.121094 47.402344 39.566406 48.050781 39.90625 C 48.699219 40.242188 49.484375 40.410156 50.40625 40.410156 C 51.324219 40.410156 52.09375 40.238281 52.710938 39.890625 C 53.328125 39.542969 53.824219 39.082031 54.203125 38.507812 C 54.578125 37.9375 54.851562 37.28125 55.019531 36.542969 C 55.183594 35.808594 55.269531 35.050781 55.269531 34.273438 C 55.269531 33.535156 55.167969 32.816406 54.972656 32.109375 Z M 54.972656 32.109375 "/>
<path style=" stroke:none;fill-rule:nonzero;fill:rgb(33.333334%,52.549022%,64.313728%);fill-opacity:1;" d="M 71.886719 41.324219 C 70.667969 42.222656 69.132812 42.675781 67.285156 42.675781 C 65.980469 42.675781 64.851562 42.46875 63.894531 42.058594 C 62.9375 41.652344 62.132812 41.078125 61.484375 40.339844 C 60.832031 39.605469 60.34375 38.722656 60.015625 37.699219 C 59.691406 36.675781 59.507812 35.5625 59.464844 34.355469 C 59.464844 33.144531 59.65625 32.042969 60.035156 31.039062 C 60.410156 30.035156 60.941406 29.164062 61.625 28.425781 C 62.308594 27.691406 63.121094 27.117188 64.054688 26.707031 C 64.992188 26.300781 66.015625 26.09375 67.132812 26.09375 C 68.585938 26.09375 69.789062 26.386719 70.746094 26.972656 C 71.703125 27.554688 72.472656 28.300781 73.050781 29.203125 C 73.628906 30.105469 74.027344 31.089844 74.25 32.15625 C 74.46875 33.222656 74.558594 34.234375 74.515625 35.199219 L 62.324219 35.199219 C 62.304688 35.894531 62.386719 36.554688 62.574219 37.175781 C 62.765625 37.800781 63.066406 38.351562 63.488281 38.832031 C 63.90625 39.3125 64.441406 39.695312 65.09375 39.980469 C 65.742188 40.265625 66.507812 40.410156 67.390625 40.410156 C 68.519531 40.410156 69.449219 40.15625 70.171875 39.640625 C 70.894531 39.128906 71.371094 38.351562 71.605469 37.304688 L 74.25 37.304688 C 73.894531 39.085938 73.105469 40.425781 71.886719 41.324219 Z M 71.230469 31.136719 C 70.992188 30.585938 70.667969 30.109375 70.257812 29.714844 C 69.851562 29.316406 69.367188 29 68.8125 28.761719 C 68.257812 28.527344 67.644531 28.410156 66.976562 28.410156 C 66.285156 28.410156 65.660156 28.527344 65.105469 28.761719 C 64.550781 29 64.074219 29.320312 63.675781 29.726562 C 63.277344 30.136719 62.964844 30.613281 62.734375 31.152344 C 62.503906 31.695312 62.367188 32.269531 62.324219 32.882812 L 71.65625 32.882812 C 71.617188 32.269531 71.472656 31.6875 71.230469 31.136719 Z M 71.230469 31.136719 "/>
<path style=" stroke:none;fill-rule:nonzero;fill:rgb(33.333334%,52.549022%,64.313728%);fill-opacity:1;" d="M 78.839844 26.464844 L 78.839844 28.984375 L 78.890625 28.984375 C 80.007812 27.058594 81.78125 26.09375 84.207031 26.09375 C 85.28125 26.09375 86.179688 26.238281 86.898438 26.523438 C 87.613281 26.8125 88.195312 27.210938 88.636719 27.722656 C 89.082031 28.238281 89.394531 28.847656 89.574219 29.554688 C 89.75 30.261719 89.839844 31.042969 89.839844 31.90625 L 89.839844 42.359375 L 87.144531 42.359375 L 87.144531 31.605469 C 87.144531 30.621094 86.847656 29.84375 86.261719 29.269531 C 85.667969 28.695312 84.859375 28.410156 83.828125 28.410156 C 83.007812 28.410156 82.296875 28.535156 81.695312 28.78125 C 81.097656 29.027344 80.597656 29.375 80.199219 29.824219 C 79.796875 30.273438 79.5 30.800781 79.296875 31.40625 C 79.097656 32.007812 79 32.671875 79 33.386719 L 79 42.359375 L 76.300781 42.359375 L 76.300781 26.464844 Z M 78.839844 26.464844 "/>
<path style=" stroke:none;fill-rule:nonzero;fill:rgb(33.333334%,52.549022%,64.313728%);fill-opacity:1;" d="M 108.488281 42.183594 C 107.269531 42.6875 106.039062 42.9375 104.800781 42.9375 C 102.839844 42.9375 101.078125 42.605469 99.515625 41.941406 C 97.949219 41.273438 96.632812 40.359375 95.554688 39.191406 C 94.480469 38.023438 93.65625 36.652344 93.085938 35.074219 C 92.511719 33.5 92.226562 31.800781 92.226562 29.980469 C 92.226562 28.113281 92.511719 26.378906 93.082031 24.78125 C 93.652344 23.179688 94.476562 21.785156 95.546875 20.597656 C 96.621094 19.40625 97.9375 18.472656 99.5 17.792969 C 101.066406 17.117188 102.824219 16.777344 104.785156 16.777344 C 106.097656 16.777344 107.367188 16.972656 108.597656 17.359375 C 109.828125 17.742188 110.9375 18.3125 111.929688 19.058594 C 112.921875 19.808594 113.738281 20.730469 114.382812 21.828125 C 115.027344 22.925781 115.421875 24.183594 115.566406 25.601562 L 110.195312 25.601562 C 109.859375 24.207031 109.214844 23.15625 108.257812 22.457031 C 107.304688 21.757812 106.144531 21.410156 104.785156 21.410156 C 103.519531 21.410156 102.445312 21.648438 101.558594 22.128906 C 100.675781 22.605469 99.960938 23.25 99.410156 24.054688 C 98.859375 24.859375 98.460938 25.777344 98.210938 26.804688 C 97.960938 27.832031 97.835938 28.890625 97.835938 29.988281 C 97.835938 31.039062 97.960938 32.0625 98.210938 33.054688 C 98.464844 34.046875 98.863281 34.9375 99.414062 35.730469 C 99.960938 36.527344 100.679688 37.160156 101.566406 37.640625 C 102.449219 38.117188 103.527344 38.359375 104.792969 38.359375 C 106.660156 38.359375 108.097656 37.898438 109.113281 36.980469 C 110.128906 36.0625 110.722656 34.734375 110.890625 32.988281 L 105.230469 32.988281 L 105.230469 28.882812 L 115.960938 28.882812 L 115.960938 42.378906 L 112.390625 42.378906 L 111.820312 39.546875 C 110.816406 40.804688 109.707031 41.683594 108.488281 42.183594 Z M 108.488281 42.183594 "/>
<path style=" stroke:none;fill-rule:nonzero;fill:rgb(33.333334%,52.549022%,64.313728%);fill-opacity:1;" d="M 125.082031 17.410156 L 125.082031 37.726562 L 137.546875 37.726562 L 137.546875 42.359375 L 119.46875 42.359375 L 119.46875 17.410156 Z M 125.082031 17.410156 "/>
<path style=" stroke:none;fill-rule:nonzero;fill:rgb(33.333334%,52.549022%,64.313728%);fill-opacity:1;" d="M 98.546875 45.460938 C 89.964844 50.554688 77.105469 53.453125 62.761719 53.453125 C 36.917969 53.453125 15.964844 42.953125 15.964844 30 C 15.964844 17.046875 36.917969 6.546875 62.761719 6.546875 C 77.160156 6.546875 90.070312 9.5 98.652344 14.625 C 89.28125 6.039062 72.484375 0.00390625 53.273438 0 C 23.855469 -0.00390625 0.00390625 13.421875 0 29.992188 C -0.00390625 46.558594 23.84375 59.996094 53.265625 60 C 72.398438 60.003906 89.152344 53.988281 98.546875 45.460938 Z M 98.546875 45.460938 "/>
<path style=" stroke:none;fill-rule:nonzero;fill:rgb(33.333334%,52.549022%,64.313728%);fill-opacity:1;" d="M 145 40.058594 C 145 40.476562 144.894531 40.867188 144.683594 41.226562 C 144.476562 41.589844 144.191406 41.875 143.828125 42.082031 C 143.464844 42.289062 143.074219 42.394531 142.65625 42.394531 C 142.238281 42.394531 141.847656 42.289062 141.488281 42.082031 C 141.125 41.875 140.839844 41.589844 140.628906 41.226562 C 140.417969 40.867188 140.3125 40.476562 140.3125 40.058594 C 140.3125 39.640625 140.417969 39.25 140.628906 38.886719 C 140.839844 38.523438 141.125 38.238281 141.488281 38.03125 C 141.847656 37.824219 142.238281 37.71875 142.65625 37.71875 C 143.074219 37.71875 143.464844 37.824219 143.828125 38.03125 C 144.191406 38.238281 144.476562 38.523438 144.683594 38.886719 C 144.894531 39.25 145 39.640625 145 40.058594 Z M 144.546875 40.058594 C 144.546875 39.535156 144.359375 39.089844 143.992188 38.722656 C 143.621094 38.351562 143.175781 38.167969 142.65625 38.167969 C 142.132812 38.167969 141.6875 38.355469 141.320312 38.722656 C 140.949219 39.089844 140.765625 39.535156 140.765625 40.058594 C 140.765625 40.578125 140.949219 41.023438 141.320312 41.390625 C 141.6875 41.761719 142.132812 41.945312 142.65625 41.945312 C 143.175781 41.945312 143.621094 41.761719 143.992188 41.390625 C 144.359375 41.023438 144.546875 40.578125 144.546875 40.058594 Z M 141.59375 38.808594 L 142.714844 38.808594 C 143.03125 38.808594 143.261719 38.871094 143.402344 39 C 143.546875 39.125 143.617188 39.296875 143.617188 39.511719 C 143.617188 39.679688 143.5625 39.824219 143.453125 39.945312 C 143.34375 40.070312 143.171875 40.15625 142.941406 40.214844 C 143.035156 40.25 143.109375 40.289062 143.152344 40.328125 C 143.214844 40.386719 143.28125 40.472656 143.351562 40.585938 C 143.355469 40.59375 143.492188 40.832031 143.757812 41.308594 L 143.019531 41.308594 C 142.78125 40.832031 142.621094 40.546875 142.539062 40.453125 C 142.457031 40.359375 142.375 40.3125 142.292969 40.3125 C 142.273438 40.3125 142.25 40.316406 142.214844 40.324219 L 142.214844 41.308594 L 141.59375 41.308594 Z M 142.214844 39.867188 L 142.484375 39.867188 C 142.667969 39.867188 142.792969 39.835938 142.867188 39.78125 C 142.941406 39.722656 142.976562 39.644531 142.976562 39.554688 C 142.976562 39.460938 142.941406 39.386719 142.871094 39.328125 C 142.800781 39.269531 142.679688 39.242188 142.511719 39.242188 L 142.214844 39.242188 Z M 142.214844 39.867188 "/>
</g>
</svg>
