<?xml version="1.0" encoding="UTF-8"?>
<svg xmlns="http://www.w3.org/2000/svg" xmlns:xlink="http://www.w3.org/1999/xlink" width="px" height="60px" viewBox="0 0 160 60" version="1.1">
<g id="surface1">
<path style=" stroke:none;fill-rule:nonzero;fill:rgb(3.921569%,89.411765%,28.235295%);fill-opacity:1;" d="M 46.628906 28.023438 C 46.628906 28.023438 46.628906 28.039062 46.628906 28.050781 L 44.523438 37.378906 C 44.410156 37.90625 43.894531 38.296875 43.296875 38.296875 L 40.757812 38.296875 C 40.570312 38.296875 40.398438 38.421875 40.347656 38.605469 C 38.003906 46.734375 34.824219 52.320312 30.632812 55.675781 C 27.0625 58.53125 22.664062 59.863281 16.789062 59.863281 C 11.507812 59.863281 7.949219 58.128906 4.925781 54.703125 C 0.9375 50.179688 -0.714844 42.773438 0.285156 33.847656 C 2.089844 17.09375 10.59375 0.191406 26.980469 0.191406 C 31.964844 0.144531 35.878906 1.714844 38.597656 4.847656 C 41.476562 8.164062 42.941406 13.15625 42.945312 19.691406 C 42.9375 20.285156 42.453125 20.765625 41.871094 20.765625 L 29.867188 20.765625 C 29.445312 20.765625 29.0625 20.375 29.070312 19.945312 C 28.972656 15.425781 27.660156 13.222656 25.050781 13.222656 C 20.449219 13.222656 17.734375 19.601562 16.296875 23.140625 C 14.285156 28.082031 13.261719 33.445312 13.460938 38.789062 C 13.558594 41.277344 13.949219 44.777344 16.261719 46.226562 C 18.3125 47.511719 21.238281 46.660156 23.011719 45.234375 C 24.78125 43.8125 26.207031 41.351562 26.804688 39.105469 C 26.890625 38.792969 26.898438 38.550781 26.816406 38.441406 C 26.730469 38.332031 26.5 38.304688 26.320312 38.304688 L 23.238281 38.304688 C 22.90625 38.304688 22.578125 38.152344 22.382812 37.902344 C 22.214844 37.691406 22.152344 37.433594 22.210938 37.175781 L 24.316406 27.828125 C 24.421875 27.351562 24.847656 26.988281 25.367188 26.925781 L 25.367188 26.902344 L 45.597656 26.902344 C 45.644531 26.902344 45.695312 26.902344 45.738281 26.910156 C 46.265625 26.980469 46.636719 27.480469 46.625 28.023438 Z M 46.628906 28.023438 "/>
<path style=" stroke:none;fill-rule:nonzero;fill:rgb(3.921569%,89.411765%,28.235295%);fill-opacity:1;" d="M 81.457031 17.296875 C 81.449219 17.882812 80.964844 18.359375 80.386719 18.359375 L 69.328125 18.359375 C 68.605469 18.359375 68 17.761719 68 17.03125 C 68 13.734375 66.882812 12.132812 64.597656 12.132812 C 62.3125 12.132812 60.839844 13.5625 60.800781 16.066406 C 60.75 18.855469 62.296875 21.390625 66.695312 25.746094 C 72.484375 31.296875 74.804688 36.210938 74.695312 42.703125 C 74.511719 53.210938 67.519531 60 56.878906 60 C 51.441406 60 47.289062 58.515625 44.53125 55.585938 C 41.726562 52.613281 40.441406 48.25 40.710938 42.617188 C 40.722656 42.03125 41.203125 41.558594 41.785156 41.558594 L 53.222656 41.558594 C 53.53125 41.558594 53.839844 41.710938 54.046875 41.972656 C 54.226562 42.199219 54.300781 42.480469 54.257812 42.742188 C 54.128906 44.773438 54.476562 46.292969 55.257812 47.132812 C 55.761719 47.675781 56.457031 47.949219 57.332031 47.949219 C 59.441406 47.949219 60.683594 46.425781 60.726562 43.769531 C 60.765625 41.476562 60.054688 39.460938 56.183594 35.394531 C 51.179688 30.398438 46.691406 25.242188 46.832031 17.132812 C 46.914062 12.429688 48.742188 8.128906 51.984375 5.019531 C 55.410156 1.734375 60.097656 0 65.539062 0 C 70.988281 0.0390625 75.121094 1.625 77.816406 4.71875 C 80.367188 7.648438 81.597656 11.882812 81.460938 17.296875 Z M 81.457031 17.296875 "/>
<path style=" stroke:none;fill-rule:nonzero;fill:rgb(3.921569%,89.411765%,28.235295%);fill-opacity:1;" d="M 115.730469 58.023438 L 115.800781 2.15625 C 115.8125 1.570312 115.347656 1.09375 114.765625 1.09375 L 97.652344 1.09375 C 97.078125 1.09375 96.828125 1.597656 96.660156 1.929688 L 71.886719 57.683594 L 71.886719 57.691406 C 71.886719 57.691406 71.878906 57.703125 71.875 57.703125 C 71.597656 58.390625 72.121094 59.125 72.847656 59.125 L 84.808594 59.125 C 85.457031 59.125 85.882812 58.925781 86.09375 58.507812 L 88.46875 52.679688 C 88.761719 51.902344 88.816406 51.828125 89.648438 51.828125 L 101.078125 51.828125 C 101.871094 51.828125 101.886719 51.847656 101.875 52.640625 L 101.617188 58.058594 C 101.609375 58.644531 102.074219 59.125 102.652344 59.125 L 114.738281 59.125 C 115.046875 59.125 115.335938 58.992188 115.527344 58.761719 C 115.699219 58.554688 115.769531 58.292969 115.730469 58.023438 Z M 94.558594 39.371094 C 94.449219 39.371094 94.359375 39.367188 94.289062 39.359375 C 94.109375 39.34375 93.992188 39.171875 94.035156 38.992188 C 94.058594 38.910156 94.09375 38.804688 94.140625 38.667969 L 102.710938 17.011719 C 102.785156 16.800781 102.878906 16.589844 102.976562 16.386719 C 103.117188 16.09375 103.285156 16.074219 103.335938 16.292969 C 103.382812 16.472656 102.355469 38.527344 102.355469 38.527344 C 102.273438 39.355469 102.238281 39.386719 101.441406 39.457031 L 94.570312 39.375 L 94.550781 39.375 Z M 94.558594 39.371094 "/>
<path style=" stroke:none;fill-rule:nonzero;fill:rgb(3.921569%,89.411765%,28.235295%);fill-opacity:1;" d="M 140.109375 1.09375 L 131.023438 1.09375 C 130.542969 1.09375 130.003906 1.351562 129.878906 1.933594 C 129.878906 1.933594 117.234375 57.988281 117.234375 57.992188 C 117.179688 58.253906 117.238281 58.507812 117.40625 58.722656 C 117.605469 58.96875 117.933594 59.125 118.265625 59.125 L 129.617188 59.125 C 130.230469 59.125 130.648438 58.820312 130.761719 58.289062 C 130.761719 58.289062 132.136719 51.953125 132.140625 51.933594 C 132.238281 51.4375 132.066406 51.054688 131.632812 50.824219 C 131.429688 50.714844 131.226562 50.605469 131.023438 50.5 L 127.09375 48.410156 C 126.839844 48.273438 126.589844 48.140625 126.339844 48.007812 C 126.210938 47.941406 126.136719 47.808594 126.136719 47.664062 C 126.140625 47.453125 126.316406 47.277344 126.527344 47.277344 L 132.75 47.308594 C 134.613281 47.316406 136.472656 47.183594 138.304688 46.839844 C 151.191406 44.410156 159.75 33.867188 159.996094 19.527344 C 160.207031 7.289062 153.515625 1.085938 140.117188 1.085938 Z M 137.015625 34.453125 L 136.773438 34.453125 C 136.226562 34.453125 136.128906 34.390625 136.113281 34.371094 C 136.105469 34.359375 139.703125 18.226562 139.707031 18.203125 C 139.796875 17.738281 139.792969 17.46875 139.511719 17.3125 C 139.152344 17.109375 133.898438 14.277344 133.898438 14.277344 C 133.773438 14.210938 133.695312 14.078125 133.699219 13.933594 C 133.703125 13.726562 133.875 13.550781 134.085938 13.550781 L 142.390625 13.550781 C 144.976562 13.632812 146.417969 15.992188 146.351562 20.027344 C 146.230469 27.011719 142.980469 34.207031 137.015625 34.453125 Z M 137.015625 34.453125 "/>
<path style=" stroke:none;fill-rule:nonzero;fill:rgb(3.921569%,89.411765%,28.235295%);fill-opacity:1;" d="M 149.347656 59.125 C 151.214844 59.125 152.679688 57.671875 152.679688 55.714844 C 152.679688 53.757812 151.214844 52.304688 149.347656 52.304688 C 147.480469 52.304688 146 53.757812 146 55.714844 C 146 57.671875 147.476562 59.125 149.347656 59.125 Z M 146.792969 55.703125 C 146.792969 54.039062 147.769531 52.949219 149.347656 52.949219 C 150.925781 52.949219 151.886719 54.035156 151.886719 55.703125 C 151.886719 57.367188 150.925781 58.460938 149.347656 58.460938 C 147.769531 58.460938 146.792969 57.378906 146.792969 55.703125 Z M 148.945312 57.53125 L 148.945312 56.21875 L 149.253906 56.21875 C 150.050781 56.21875 149.703125 57.378906 149.894531 57.53125 L 150.996094 57.53125 L 150.996094 57.476562 C 150.789062 57.417969 151.121094 55.96875 150.203125 55.8125 L 150.203125 55.796875 C 150.648438 55.703125 150.9375 55.375 150.9375 54.882812 C 150.9375 54.175781 150.433594 53.796875 149.625 53.796875 L 147.878906 53.796875 L 147.878906 57.53125 Z M 148.945312 55.429688 L 148.945312 54.554688 L 149.308594 54.554688 C 149.671875 54.554688 149.878906 54.667969 149.878906 54.988281 C 149.878906 55.285156 149.671875 55.425781 149.308594 55.425781 L 148.945312 55.425781 Z M 148.945312 55.429688 "/>
</g>
</svg>
