<?xml version="1.0" encoding="UTF-8"?>
<svg xmlns="http://www.w3.org/2000/svg" xmlns:xlink="http://www.w3.org/1999/xlink" width="px" height="60px" viewBox="0 0 53 60" version="1.1">
<g id="surface1">
<path style=" stroke:none;fill-rule:nonzero;fill:rgb(90.196079%,31.764707%,0%);fill-opacity:1;" d="M 53 0 L 0 0 L 4.675781 53.683594 L 26.5 60 L 48.324219 53.683594 Z M 53 0 "/>
<path style=" stroke:none;fill-rule:nonzero;fill:rgb(100%,42.745098%,0%);fill-opacity:1;" d="M 26.5 4.738281 L 26.5 55.105469 L 43.957031 50.050781 L 47.855469 4.738281 Z M 26.5 4.738281 "/>
<path style=" stroke:none;fill-rule:nonzero;fill:rgb(100%,100%,100%);fill-opacity:1;" d="M 26.5 31.578125 L 26.5 25.261719 L 39.90625 25.261719 L 38.816406 43.421875 L 26.5 47.527344 L 26.5 40.894531 L 32.890625 38.683594 L 33.359375 31.578125 Z M 40.375 18.949219 L 40.839844 12.632812 L 26.5 12.632812 L 26.5 18.949219 Z M 40.375 18.949219 "/>
<path style=" stroke:none;fill-rule:nonzero;fill:rgb(93.333334%,93.333334%,93.333334%);fill-opacity:1;" d="M 26.5 40.894531 L 26.5 47.527344 L 14.183594 43.421875 L 13.5625 34.738281 L 19.796875 34.738281 L 20.109375 38.683594 Z M 18.863281 18.949219 L 26.5 18.949219 L 26.5 12.632812 L 12.316406 12.632812 L 13.40625 31.578125 L 26.5 31.578125 L 26.5 25.261719 L 19.328125 25.261719 Z M 18.863281 18.949219 "/>
</g>
</svg>
