<?xml version="1.0" encoding="UTF-8"?>
<svg xmlns="http://www.w3.org/2000/svg" xmlns:xlink="http://www.w3.org/1999/xlink" width="px" height="60px" viewBox="0 0 59 60" version="1.1">
<g id="surface1">
<path style=" stroke:none;fill-rule:nonzero;fill:rgb(20%,0%,0%);fill-opacity:1;" d="M 10.398438 0.566406 L 48.316406 0.566406 C 54.066406 0.566406 58.714844 5.328125 58.714844 11.214844 L 58.714844 48.558594 C 58.714844 54.445312 54.066406 59.207031 48.316406 59.207031 L 10.398438 59.207031 C 4.648438 59.207031 0 54.445312 0 48.558594 L 0 11.214844 C 0 5.328125 4.648438 0.566406 10.398438 0.566406 Z M 10.398438 0.566406 "/>
<path style=" stroke:none;fill-rule:nonzero;fill:rgb(100%,60.392159%,0%);fill-opacity:1;" d="M 28.378906 35.652344 L 19.277344 35.652344 L 17.417969 41.539062 C 17.371094 41.765625 17.175781 41.917969 16.953125 41.890625 L 12.355469 41.890625 C 12.085938 41.890625 12.011719 41.742188 12.085938 41.441406 L 19.960938 18.207031 C 20.035156 17.957031 20.109375 17.683594 20.207031 17.382812 C 20.304688 16.855469 20.355469 16.304688 20.355469 15.753906 C 20.328125 15.628906 20.425781 15.503906 20.550781 15.476562 L 26.886719 15.476562 C 27.082031 15.476562 27.179688 15.550781 27.203125 15.675781 L 36.132812 41.492188 C 36.207031 41.765625 36.132812 41.890625 35.890625 41.890625 L 30.777344 41.890625 C 30.605469 41.917969 30.433594 41.792969 30.382812 41.617188 Z M 20.695312 30.5625 L 26.910156 30.5625 C 26.765625 30.039062 26.566406 29.410156 26.347656 28.757812 C 26.128906 28.082031 25.90625 27.355469 25.6875 26.605469 C 25.441406 25.828125 25.222656 25.074219 24.976562 24.296875 C 24.734375 23.523438 24.511719 22.792969 24.316406 22.066406 C 24.121094 21.367188 23.949219 20.714844 23.777344 20.113281 L 23.730469 20.113281 C 23.511719 21.191406 23.242188 22.269531 22.898438 23.347656 C 22.53125 24.550781 22.164062 25.800781 21.773438 27.054688 C 21.429688 28.332031 21.0625 29.511719 20.695312 30.5625 Z M 41.589844 19.863281 C 40.78125 19.886719 40 19.5625 39.410156 18.984375 C 38.847656 18.359375 38.554688 17.53125 38.582031 16.679688 C 38.554688 15.828125 38.875 15.027344 39.460938 14.449219 C 40.046875 13.871094 40.832031 13.570312 41.636719 13.570312 C 42.59375 13.570312 43.324219 13.871094 43.863281 14.449219 C 44.402344 15.050781 44.695312 15.851562 44.671875 16.679688 C 44.695312 17.53125 44.402344 18.359375 43.816406 18.984375 C 43.253906 19.585938 42.421875 19.914062 41.589844 19.863281 Z M 38.847656 41.617188 L 38.847656 22.320312 C 38.847656 22.066406 38.945312 21.96875 39.167969 21.96875 L 44.011719 21.96875 C 44.230469 21.96875 44.328125 22.09375 44.328125 22.320312 L 44.328125 41.617188 C 44.328125 41.890625 44.230469 42.015625 44.011719 42.015625 L 39.214844 42.015625 C 38.972656 42.015625 38.847656 41.867188 38.847656 41.617188 Z M 38.847656 41.617188 "/>
</g>
</svg>
