<?xml version="1.0" encoding="UTF-8"?>
<svg xmlns="http://www.w3.org/2000/svg" xmlns:xlink="http://www.w3.org/1999/xlink" width="px" height="60px" viewBox="0 0 61 60" version="1.1">
<g id="surface1">
<path style=" stroke:none;fill-rule:nonzero;fill:rgb(28.627452%,0.784314%,12.156863%);fill-opacity:1;" d="M 10.992188 0 L 50.007812 0 C 55.921875 0 60.703125 4.871094 60.703125 10.898438 L 60.703125 49.101562 C 60.703125 55.128906 55.921875 60 50.007812 60 L 10.992188 60 C 5.078125 60 0.296875 55.128906 0.296875 49.101562 L 0.296875 10.898438 C 0.296875 4.871094 5.078125 0 10.992188 0 Z M 10.992188 0 "/>
<path style=" stroke:none;fill-rule:nonzero;fill:rgb(100%,20%,40.000001%);fill-opacity:1;" d="M 22.242188 15.691406 L 22.242188 42.101562 C 22.242188 42.382812 22.117188 42.511719 21.890625 42.511719 L 16.960938 42.511719 C 16.734375 42.511719 16.632812 42.382812 16.632812 42.101562 L 16.632812 15.691406 C 16.632812 15.460938 16.757812 15.359375 16.984375 15.359375 L 21.890625 15.359375 C 22.042969 15.332031 22.195312 15.4375 22.21875 15.617188 C 22.242188 15.640625 22.242188 15.664062 22.242188 15.691406 Z M 22.242188 15.691406 "/>
<path style=" stroke:none;fill-rule:nonzero;fill:rgb(100%,20%,40.000001%);fill-opacity:1;" d="M 36.792969 42.820312 C 34.929688 42.847656 33.066406 42.460938 31.382812 41.667969 C 29.792969 40.925781 28.488281 39.691406 27.582031 38.179688 C 26.648438 36.617188 26.195312 34.667969 26.195312 32.335938 C 26.171875 30.4375 26.648438 28.5625 27.582031 26.921875 C 28.535156 25.257812 29.921875 23.871094 31.582031 22.949219 C 33.34375 21.949219 35.457031 21.460938 37.949219 21.460938 C 38.078125 21.460938 38.253906 21.460938 38.480469 21.488281 C 38.707031 21.511719 38.957031 21.511719 39.257812 21.539062 L 39.257812 13.4375 C 39.257812 13.257812 39.335938 13.152344 39.511719 13.152344 L 44.621094 13.152344 C 44.746094 13.128906 44.847656 13.230469 44.871094 13.332031 L 44.871094 37.796875 C 44.871094 38.257812 44.894531 38.769531 44.921875 39.332031 C 44.972656 39.871094 45 40.386719 45.023438 40.820312 C 45.023438 41 44.945312 41.152344 44.769531 41.230469 C 43.460938 41.792969 42.078125 42.207031 40.667969 42.460938 C 39.410156 42.691406 38.101562 42.820312 36.792969 42.820312 Z M 39.257812 37.691406 L 39.257812 26.410156 C 39.03125 26.359375 38.804688 26.308594 38.578125 26.28125 C 38.304688 26.257812 38.027344 26.230469 37.746094 26.230469 C 36.765625 26.230469 35.785156 26.433594 34.90625 26.898438 C 34.046875 27.332031 33.320312 27.976562 32.765625 28.796875 C 32.210938 29.617188 31.933594 30.71875 31.933594 32.050781 C 31.910156 32.949219 32.0625 33.847656 32.363281 34.691406 C 32.613281 35.382812 32.992188 36 33.496094 36.511719 C 33.972656 36.976562 34.554688 37.332031 35.207031 37.539062 C 35.886719 37.769531 36.589844 37.871094 37.296875 37.871094 C 37.675781 37.871094 38.027344 37.847656 38.355469 37.820312 C 38.679688 37.847656 38.984375 37.796875 39.257812 37.691406 Z M 39.257812 37.691406 "/>
</g>
</svg>
