<?xml version="1.0" encoding="UTF-8"?>
<svg xmlns="http://www.w3.org/2000/svg" xmlns:xlink="http://www.w3.org/1999/xlink" width="px" height="60px" viewBox="0 0 45 60" version="1.1">
<g id="surface1">
<path style=" stroke:none;fill-rule:nonzero;fill:rgb(95.686275%,26.274511%,21.176471%);fill-opacity:1;" d="M 21.976562 31.347656 C 20.476562 28.933594 19.390625 26.933594 17.886719 23.164062 C 15.34375 16.800781 33.359375 11.050781 26.054688 0 C 29.222656 7.632812 14.691406 12.351562 13.339844 18.710938 C 12.105469 24.554688 21.96875 31.347656 21.976562 31.347656 Z M 21.976562 31.347656 "/>
<path style=" stroke:none;fill-rule:nonzero;fill:rgb(95.686275%,26.274511%,21.176471%);fill-opacity:1;" d="M 22.316406 19.90625 C 22.027344 23.679688 25.660156 25.691406 25.765625 28.449219 C 25.847656 30.691406 23.59375 32.5625 23.59375 32.5625 C 23.59375 32.5625 27.6875 31.757812 28.964844 28.335938 C 30.382812 24.535156 26.210938 21.933594 26.640625 18.890625 C 27.042969 15.980469 35.6875 10.574219 35.6875 10.574219 C 35.6875 10.574219 22.964844 11.417969 22.316406 19.90625 Z M 22.316406 19.90625 "/>
<path style=" stroke:none;fill-rule:nonzero;fill:rgb(8.235294%,39.607844%,75.294119%);fill-opacity:1;" d="M 34.625 31.582031 C 37.257812 30.992188 39.476562 32.667969 39.476562 34.597656 C 39.476562 38.949219 33.445312 43.0625 33.445312 43.0625 C 33.445312 43.0625 42.78125 41.949219 42.78125 34.804688 C 42.78125 30.082031 38.195312 28.898438 34.625 31.582031 Z M 30.195312 35.09375 C 30.195312 35.09375 33.105469 33.019531 33.878906 32.242188 C 26.734375 33.757812 10.421875 33.960938 10.421875 32.644531 C 10.421875 31.429688 15.683594 30.1875 15.683594 30.1875 C 15.683594 30.1875 4.023438 30.019531 4.023438 33.457031 C 4.023438 37.042969 19.285156 37.300781 30.195312 35.09375 Z M 30.195312 35.09375 "/>
<path style=" stroke:none;fill-rule:nonzero;fill:rgb(8.235294%,39.607844%,75.294119%);fill-opacity:1;" d="M 28.402344 38.355469 C 21.640625 40.605469 9.179688 39.886719 12.871094 36.867188 C 11.074219 36.867188 8.410156 38.3125 8.410156 39.699219 C 8.410156 42.488281 21.882812 44.636719 31.855469 40.558594 Z M 28.402344 38.355469 "/>
<path style=" stroke:none;fill-rule:nonzero;fill:rgb(8.235294%,39.607844%,75.294119%);fill-opacity:1;" d="M 14.527344 43.109375 C 12.074219 43.109375 10.488281 44.691406 10.488281 45.84375 C 10.488281 49.429688 25.125 49.789062 30.925781 46.148438 L 27.238281 43.703125 C 22.90625 45.605469 12.019531 45.867188 14.527344 43.109375 Z M 14.527344 43.109375 "/>
<path style=" stroke:none;fill-rule:nonzero;fill:rgb(8.235294%,39.607844%,75.294119%);fill-opacity:1;" d="M 40.921875 48.949219 C 40.921875 47.542969 39.339844 46.882812 38.773438 46.566406 C 42.113281 54.625 5.296875 54 5.296875 49.242188 C 5.296875 48.160156 8.007812 47.101562 10.511719 47.601562 L 8.382812 46.34375 C 3.390625 45.5625 0 47.757812 0 49.527344 C 0 57.78125 40.921875 57.382812 40.921875 48.949219 Z M 40.921875 48.949219 "/>
<path style=" stroke:none;fill-rule:nonzero;fill:rgb(8.235294%,39.607844%,75.294119%);fill-opacity:1;" d="M 45 51.90625 C 38.78125 58.046875 23.011719 60.285156 7.152344 56.492188 C 23.011719 63.246094 44.925781 59.441406 45 51.90625 Z M 45 51.90625 "/>
</g>
</svg>
