<svg xmlns="http://www.w3.org/2000/svg" width="728.658" height="733.56" viewBox="0 0 728.658 733.56">
  <defs>
    <style>
      .cls-1 {
        fill: #e4232a;
      }

      .cls-1, .cls-2, .cls-3 {
        fill-rule: evenodd;
      }

      .cls-2 {
        fill: #0f75bc;
      }

      .cls-3 {
        fill: #fff;
      }
    </style>
  </defs>
  <path id="red" class="cls-1" d="M841,373c-84.447,4.086-125.369,135.988-108,202,17.205,65.388,50.157,99.26,117,121,58.96,19.176,103.536,26.4,211,36,93.27,8.329,130.69,16.36,181,45,42,23.907,76.29,65.783,21,107s1,11,1,11,70.3-1.988,98-92c12.48-40.566,12.99-113.385-34-159-73.02-70.889-167.41-94.1-281-98-55.311-1.9-104.066,1.4-141-6-89.672-17.975-118.347-66.226-65-167" transform="translate(-685.312 -373)"/>
  <path id="blue" class="cls-2" d="M1155.37,767.09a115.639,115.639,0,1,1-115.64,115.639A115.637,115.637,0,0,1,1155.37,767.09Z" transform="translate(-685.312 -373)"/>
  <path id="jonny" class="cls-3" d="M826.814,576.276l-0.74-.74L805.126,576.7v3.28q1.64,0.159,4.84.74a12.8,12.8,0,0,1,4.047,1.164,7.125,7.125,0,0,1,2.142,2.513,6.9,6.9,0,0,1,.82,3.253V626.9q0,10.737-1.719,15.6t-5.739,4.867q-0.793-1.323-1.667-2.724a17.249,17.249,0,0,0-1.719-2.354,7.773,7.773,0,0,0-2.221-1.8,6.007,6.007,0,0,0-2.91-.687,4.317,4.317,0,0,0-3.7,1.719,6.54,6.54,0,0,0-1.269,3.993,5.511,5.511,0,0,0,2.38,4.417q2.38,1.878,7.089,1.878a18.474,18.474,0,0,0,8.331-1.878,21.435,21.435,0,0,0,6.8-5.422,25.353,25.353,0,0,0,4.5-8.437,34.473,34.473,0,0,0,1.693-10.923V576.276Zm-1.137-26.1a6.518,6.518,0,0,0-4.946-2.036,6.149,6.149,0,0,0-4.682,2.169,7.286,7.286,0,0,0-1.983,5.078,7,7,0,0,0,1.983,4.893,6.182,6.182,0,0,0,4.682,2.142,6.272,6.272,0,0,0,4.893-2.248,7.706,7.706,0,0,0,1.984-5.263A6.671,6.671,0,0,0,825.677,550.171Zm57.544,31.9q-7.122-7.379-18.083-7.379-11.544,0-18.665,7.776t-7.122,20a30.64,30.64,0,0,0,2.038,11.452,26.152,26.152,0,0,0,5.481,8.649,23.846,23.846,0,0,0,8,5.475,24.389,24.389,0,0,0,9.479,1.878,27.19,27.19,0,0,0,10.8-2.063,23.182,23.182,0,0,0,8.473-6.295,25.771,25.771,0,0,0,4.977-9.019,34.429,34.429,0,0,0,1.748-10.817Q890.344,589.449,883.221,582.068Zm-7.7,37.425q-3.868,6.4-10.493,6.4a11.4,11.4,0,0,1-6.756-1.931,14.968,14.968,0,0,1-4.531-5.316,27.054,27.054,0,0,1-2.623-7.7,50.189,50.189,0,0,1-.822-9.389,48.423,48.423,0,0,1,.689-7.988,24.318,24.318,0,0,1,2.385-7.352,14.827,14.827,0,0,1,4.69-5.5,11.9,11.9,0,0,1,6.968-2.01,11.221,11.221,0,0,1,6.731,1.984,14.635,14.635,0,0,1,4.451,5.263,26.485,26.485,0,0,1,2.385,7.485,47.4,47.4,0,0,1,.795,8.384Q879.394,613.093,875.525,619.493Zm79.935,5.343a16.97,16.97,0,0,1-2.566-.318,13.839,13.839,0,0,1-2.2-.74,4.2,4.2,0,0,1-2.169-1.772,6.114,6.114,0,0,1-.634-2.989V591.881q0-7.776-3.624-12.458t-11.135-4.681a20.329,20.329,0,0,0-6.083.846A18.978,18.978,0,0,0,922.4,577.7a27.7,27.7,0,0,0-3.6,2.883q-1.9,1.773-3.174,3.042h-0.264v-7.353l-0.741-.74-17.35,1.163v3.491a21.476,21.476,0,0,1,2.962.4,7.254,7.254,0,0,1,2.381.924,6.585,6.585,0,0,1,2.142,2.457,7.175,7.175,0,0,1,.767,3.3v32.177a5.945,5.945,0,0,1-.714,3.091,3.8,3.8,0,0,1-2.2,1.664,9.647,9.647,0,0,1-2.248.422q-1.3.107-2.513,0.212v3.491H923.4v-3.491a21.606,21.606,0,0,1-2.671-.371,10.382,10.382,0,0,1-2.407-.793,4.757,4.757,0,0,1-2.222-1.8,5.421,5.421,0,0,1-.74-2.962V588.918a23.494,23.494,0,0,1,1.511-2.248,11.734,11.734,0,0,1,2.783-2.618,18.222,18.222,0,0,1,4.136-2.142,14.567,14.567,0,0,1,5.143-.873,8.167,8.167,0,0,1,6.389,3.015q2.625,3.015,2.625,8.569V619.44a5.958,5.958,0,0,1-.714,3.095,3.811,3.811,0,0,1-2.195,1.666,10.071,10.071,0,0,1-2.407.423q-1.457.107-2.672,0.212v3.491h25.5v-3.491Zm64.01,0a16.982,16.982,0,0,1-2.57-.318,13.875,13.875,0,0,1-2.2-.74,4.171,4.171,0,0,1-2.16-1.772,6.034,6.034,0,0,1-.64-2.989V591.881q0-7.776-3.62-12.458t-11.137-4.681a20.325,20.325,0,0,0-6.083.846,18.961,18.961,0,0,0-4.655,2.116,27.634,27.634,0,0,0-3.6,2.883q-1.9,1.773-3.174,3.042h-0.265v-7.353l-0.74-.74-17.35,1.163v3.491a21.5,21.5,0,0,1,2.962.4,7.248,7.248,0,0,1,2.38.924,6.579,6.579,0,0,1,2.143,2.457,7.187,7.187,0,0,1,.767,3.3v32.177a5.935,5.935,0,0,1-.715,3.091,3.8,3.8,0,0,1-2.2,1.664,9.637,9.637,0,0,1-2.248.422q-1.3.107-2.513,0.212v3.491h25.55v-3.491a21.6,21.6,0,0,1-2.672-.371,10.374,10.374,0,0,1-2.406-.793,4.753,4.753,0,0,1-2.222-1.8,5.421,5.421,0,0,1-.741-2.962V588.918a23.884,23.884,0,0,1,1.511-2.248,11.759,11.759,0,0,1,2.784-2.618,18.235,18.235,0,0,1,4.135-2.142,14.575,14.575,0,0,1,5.143-.873,8.164,8.164,0,0,1,6.389,3.015q2.624,3.015,2.629,8.569V619.44a5.918,5.918,0,0,1-.72,3.095,3.8,3.8,0,0,1-2.193,1.666,10.062,10.062,0,0,1-2.407.423q-1.455.107-2.671,0.212v3.491h25.5v-3.491Zm4.78,25.02a9.844,9.844,0,0,0,6.48,1.957,11.275,11.275,0,0,0,4.1-.767,14.852,14.852,0,0,0,4.42-2.989,34.313,34.313,0,0,0,5.1-6.532,96.753,96.753,0,0,0,5.95-11.558q2.55-5.66,7.44-17.668t11.18-26.607a9.562,9.562,0,0,1,3.87-4.417,13,13,0,0,1,4.17-1.825v-3.28h-19.37v3.386a14.349,14.349,0,0,1,4.58,1.454c1.6,0.792,2.41,1.647,2.41,2.563a8.621,8.621,0,0,1-.69,3.039c-0.46,1.181-.81,2.106-1.06,2.775q-3.18,8.244-5.75,14.3t-4.95,11.707q-2.265-5.919-6.38-15.777t-6.12-15.09c-0.21-.528-0.4-1.039-0.56-1.532a4.016,4.016,0,0,1-.24-1.058c0-.528.75-1,2.23-1.4a16.992,16.992,0,0,1,3.81-.661v-3.7h-23.82v3.491a13.95,13.95,0,0,1,4.76,1.72,7.582,7.582,0,0,1,3.39,3.782q4.44,10.577,8.51,20.465t9.1,22.421a60.706,60.706,0,0,1-5.32,10.556q-3.675,6.018-6.32,7.442c-0.35-.6-0.83-1.347-1.42-2.256a13.559,13.559,0,0,0-1.7-2.152,7.968,7.968,0,0,0-2.17-1.627,6.236,6.236,0,0,0-2.9-.63,4.622,4.622,0,0,0-3.63,1.667,6.31,6.31,0,0,0-1.45,4.311A5.741,5.741,0,0,0,1024.25,649.856Z" transform="translate(-685.312 -373)"/>
  <path id="on" class="cls-3" d="M1121.07,627.068q-7.125-7.379-18.09-7.379-11.535,0-18.66,7.776t-7.12,20a30.62,30.62,0,0,0,2.04,11.452,25.928,25.928,0,0,0,5.48,8.649,23.836,23.836,0,0,0,7.99,5.475,24.387,24.387,0,0,0,9.48,1.878,27.17,27.17,0,0,0,10.8-2.063,23.247,23.247,0,0,0,8.48-6.295,25.728,25.728,0,0,0,4.97-9.019,34.288,34.288,0,0,0,1.75-10.817Q1128.19,634.449,1121.07,627.068Zm-7.7,37.425q-3.87,6.4-10.49,6.4a11.4,11.4,0,0,1-6.76-1.931,14.956,14.956,0,0,1-4.53-5.316,27.176,27.176,0,0,1-2.62-7.7,50.027,50.027,0,0,1-.82-9.389,48.427,48.427,0,0,1,.69-7.988,24.343,24.343,0,0,1,2.38-7.352,14.782,14.782,0,0,1,4.69-5.5,11.915,11.915,0,0,1,6.97-2.01,11.222,11.222,0,0,1,6.73,1.984,14.594,14.594,0,0,1,4.45,5.263,26.481,26.481,0,0,1,2.39,7.485,47.379,47.379,0,0,1,.79,8.384Q1117.24,658.093,1113.37,664.493Zm79.94,5.343a16.982,16.982,0,0,1-2.57-.318,13.475,13.475,0,0,1-2.19-.74,4.157,4.157,0,0,1-2.17-1.772,6.034,6.034,0,0,1-.64-2.989V636.881q0-7.776-3.62-12.458t-11.14-4.681a20.346,20.346,0,0,0-6.08.846,18.837,18.837,0,0,0-4.65,2.116,27.645,27.645,0,0,0-3.6,2.883q-1.9,1.773-3.17,3.042h-0.27v-7.353l-0.74-.74-17.35,1.163v3.491a21.466,21.466,0,0,1,2.96.4,7.213,7.213,0,0,1,2.38.924,6.527,6.527,0,0,1,2.14,2.457,7.066,7.066,0,0,1,.77,3.3v32.177a6.005,6.005,0,0,1-.71,3.091,3.816,3.816,0,0,1-2.2,1.664,9.544,9.544,0,0,1-2.25.422c-0.86.071-1.7,0.141-2.51,0.212v3.491h25.55v-3.491a21.406,21.406,0,0,1-2.67-.371,10.469,10.469,0,0,1-2.41-.793,4.772,4.772,0,0,1-2.22-1.8,5.456,5.456,0,0,1-.74-2.962V633.918a24.035,24.035,0,0,1,1.51-2.248,11.736,11.736,0,0,1,2.79-2.618,18.05,18.05,0,0,1,4.13-2.142,14.585,14.585,0,0,1,5.14-.873,8.168,8.168,0,0,1,6.39,3.015q2.625,3.015,2.63,8.569V664.44a5.918,5.918,0,0,1-.72,3.095,3.769,3.769,0,0,1-2.19,1.666,10.137,10.137,0,0,1-2.41.423q-1.455.107-2.67,0.212v3.491h25.5v-3.491Z" transform="translate(-685.312 -373)"/>
  <path id="the" class="cls-3" d="M1231.31,740.191a17.143,17.143,0,0,1-3.62.608c-1.71.159-3.01,0.238-3.89,0.238a10.849,10.849,0,0,1-4.55-.793,5.42,5.42,0,0,1-2.54-2.328,10.19,10.19,0,0,1-1.14-3.835,51.8,51.8,0,0,1-.24-5.475V699.46h14.87v-5.078h-14.97v-16.24h-9.63v16.24h-9.63v5.078h9.42V734.8q0,6.03,2.67,9.337t9.23,3.306a24.956,24.956,0,0,0,7.51-.979q3.075-.978,6.51-2.407v-3.861Zm61.94,2.645a16.061,16.061,0,0,1-2.58-.344,17.2,17.2,0,0,1-2.21-.714,4.343,4.343,0,0,1-2.21-1.772,5.812,5.812,0,0,1-.67-2.989V709.881q0-8.3-3.76-12.722t-10.76-4.417a20.667,20.667,0,0,0-6.12.846,20.268,20.268,0,0,0-4.74,2.116,25.353,25.353,0,0,0-3.76,2.83q-1.425,1.35-3.18,3.1h-0.21V665.236l-0.74-.794L1233,665.606v3.385c0.99,0.071,2.29.2,3.89,0.4a7.669,7.669,0,0,1,3.36.978,6.369,6.369,0,0,1,2.14,2.7,8.565,8.565,0,0,1,.82,3.6v60.769a5.825,5.825,0,0,1-.73,3.1,3.936,3.936,0,0,1-2.21,1.667,12.183,12.183,0,0,1-2.21.4q-1.3.132-2.52,0.238v3.491h25.55v-3.491a19.614,19.614,0,0,1-2.72-.371,11.516,11.516,0,0,1-2.41-.793,4.619,4.619,0,0,1-2.2-1.8,5.638,5.638,0,0,1-.71-2.962V706.918c0.35-.6.85-1.339,1.48-2.221a12.589,12.589,0,0,1,2.76-2.645,19.19,19.19,0,0,1,4.22-2.142,14.616,14.616,0,0,1,5.11-.873,8.168,8.168,0,0,1,6.39,3.015q2.625,3.015,2.63,8.569V737.44a5.918,5.918,0,0,1-.72,3.095,3.8,3.8,0,0,1-2.19,1.666,10.228,10.228,0,0,1-2.44.423c-0.98.071-1.88,0.141-2.69,0.212v3.491h25.65v-3.491Zm48.93-11.056q-3.165,5.744-6.58,7.95a14.657,14.657,0,0,1-8.12,2.206,16.65,16.65,0,0,1-7.94-1.776,14.677,14.677,0,0,1-5.39-4.851,22.326,22.326,0,0,1-3.1-7.369,41.211,41.211,0,0,1-.98-9.331h34.55v-3.491a30.749,30.749,0,0,0-1.19-8.728,19.8,19.8,0,0,0-3.63-6.983,17.434,17.434,0,0,0-6.61-4.919,24.158,24.158,0,0,0-9.79-1.8,21.569,21.569,0,0,0-10.02,2.3,22.925,22.925,0,0,0-7.49,6.057,28.238,28.238,0,0,0-4.73,8.807,31.525,31.525,0,0,0-1.61,9.971,37.723,37.723,0,0,0,1.5,10.739,25.626,25.626,0,0,0,4.58,8.886,21.651,21.651,0,0,0,7.8,6.03,25.7,25.7,0,0,0,11.03,2.222,22.089,22.089,0,0,0,12.64-3.7,26.629,26.629,0,0,0,8.78-9.944Zm-32.11-17.615q0.33-8.226,4-12.841a11.324,11.324,0,0,1,9.23-4.615,9.081,9.081,0,0,1,5.45,1.53,10.721,10.721,0,0,1,3.33,3.955,19.253,19.253,0,0,1,1.61,5.644,42.386,42.386,0,0,1,.5,6.327h-24.12Z" transform="translate(-685.312 -373)"/>
  <path id="spot" class="cls-3" d="M1084.92,876.675a51.476,51.476,0,0,0-6.59-2.592c-2.36-.776-4.35-1.472-5.95-2.09a20.447,20.447,0,0,1-4-1.983,7.248,7.248,0,0,1-2.45-2.7,8.55,8.55,0,0,1-.82-3.968,6.766,6.766,0,0,1,2.48-5.274,9.99,9.99,0,0,1,6.83-2.184,12.453,12.453,0,0,1,8.96,3.533,16.86,16.86,0,0,1,4.79,9.162h3.65l-0.8-16.768h-3.8l-1.22,2.751a21.718,21.718,0,0,0-5.21-1.9,25.952,25.952,0,0,0-6.27-.793q-7.98,0-12.75,4.443a14.285,14.285,0,0,0-4.76,10.844,13.074,13.074,0,0,0,1.48,6.348,14.976,14.976,0,0,0,3.81,4.549,22.025,22.025,0,0,0,5.21,3.041,52.191,52.191,0,0,0,5.53,2.037q3.12,0.952,5.66,1.931a20.159,20.159,0,0,1,4.28,2.2,8.442,8.442,0,0,1,2.57,2.83,7.97,7.97,0,0,1,.87,3.835,8.155,8.155,0,0,1-2.75,6.625q-2.745,2.316-7.83,2.315a13.171,13.171,0,0,1-6.48-1.592,18.312,18.312,0,0,1-4.94-3.929,23.157,23.157,0,0,1-3.34-4.989,20.4,20.4,0,0,1-1.79-4.831h-3.65l0.53,18.144h3.96l1.06-3.438a22.994,22.994,0,0,0,5.48,3.015,21.073,21.073,0,0,0,8.38,1.64q8.625,0,14.04-4.6a14.821,14.821,0,0,0,5.43-11.849,14.224,14.224,0,0,0-1.17-6.083,13.184,13.184,0,0,0-3.33-4.391A21.644,21.644,0,0,0,1084.92,876.675Zm58.18-22.693a19.335,19.335,0,0,0-8.91-2.063,17.417,17.417,0,0,0-8.09,2.116,22.744,22.744,0,0,0-6.83,5.289l-0.42-.1v-5.872l-0.74-.635-17.78,1.164v3.491a24.643,24.643,0,0,1,3.28.45,7.568,7.568,0,0,1,2.65.978,6.763,6.763,0,0,1,2.06,2.381,6.411,6.411,0,0,1,.8,3.068v55.489a7.194,7.194,0,0,1-.64,3.121,3.563,3.563,0,0,1-2.22,1.851,14.756,14.756,0,0,1-2.75.529q-1.53.159-3.18,0.265v3.491h29.15V925.5a26.539,26.539,0,0,1-3.89-.5,23.534,23.534,0,0,1-3.62-.928,4.338,4.338,0,0,1-2.28-1.855,6.288,6.288,0,0,1-.74-3.183V903.335h0.43a18.28,18.28,0,0,0,4.92,2.486,23.69,23.69,0,0,0,7.72,1.058,22.124,22.124,0,0,0,9.2-1.957,25.686,25.686,0,0,0,7.89-5.607,27.657,27.657,0,0,0,5.44-8.7,29.792,29.792,0,0,0,2.07-11.294,33.815,33.815,0,0,0-1.72-11.187,27.261,27.261,0,0,0-4.84-8.6A21.911,21.911,0,0,0,1143.1,853.982Zm-6.27,47.475a11.393,11.393,0,0,1-5.71,1.56,11.727,11.727,0,0,1-4.65-.82,15.124,15.124,0,0,1-3.55-2.142,14.206,14.206,0,0,1-2.41-2.645,11.652,11.652,0,0,1-1.56-2.962V863.609a20.115,20.115,0,0,1,4.77-4.1,12.311,12.311,0,0,1,6.66-1.719,12.444,12.444,0,0,1,6.98,1.905,14.8,14.8,0,0,1,4.71,4.972,22.919,22.919,0,0,1,2.65,7.088,39.49,39.49,0,0,1,.84,7.988,42.972,42.972,0,0,1-1,9.68,23.865,23.865,0,0,1-3.12,7.617A13.268,13.268,0,0,1,1136.83,901.457Zm71.22-42.212q-7.125-7.378-18.08-7.379-11.55,0-18.67,7.776t-7.12,19.995a30.624,30.624,0,0,0,2.04,11.452,26.247,26.247,0,0,0,5.48,8.649,23.9,23.9,0,0,0,8,5.475,24.373,24.373,0,0,0,9.47,1.877,27.237,27.237,0,0,0,10.81-2.063,23.211,23.211,0,0,0,8.47-6.294,25.9,25.9,0,0,0,4.98-9.019,34.57,34.57,0,0,0,1.74-10.818Q1215.17,866.625,1208.05,859.245Zm-7.69,37.425q-3.87,6.4-10.5,6.4a11.39,11.39,0,0,1-6.75-1.931,14.939,14.939,0,0,1-4.53-5.316,26.869,26.869,0,0,1-2.63-7.7,50.027,50.027,0,0,1-.82-9.389,48.427,48.427,0,0,1,.69-7.988,24.349,24.349,0,0,1,2.38-7.353,14.97,14.97,0,0,1,4.69-5.5,11.908,11.908,0,0,1,6.97-2.01,11.2,11.2,0,0,1,6.73,1.984,14.594,14.594,0,0,1,4.45,5.263,26.481,26.481,0,0,1,2.39,7.485,47.371,47.371,0,0,1,.79,8.384Q1204.22,890.269,1200.36,896.67Zm54.54,2.7a17.061,17.061,0,0,1-3.62.609c-1.71.158-3.01,0.238-3.89,0.238a10.847,10.847,0,0,1-4.55-.794,5.418,5.418,0,0,1-2.54-2.327,10.2,10.2,0,0,1-1.14-3.835,52.143,52.143,0,0,1-.23-5.475V858.637h14.86v-5.078h-14.97v-16.24h-9.63v16.24h-9.63v5.078h9.42v35.335q0,6.03,2.67,9.336t9.23,3.306a24.958,24.958,0,0,0,7.51-.978q3.075-.978,6.51-2.407v-3.862Z" transform="translate(-685.312 -373)"/>
  <path id="PEST_CONTROL" data-name="PEST CONTROL" class="cls-1" d="M721.759,1078.9a22.8,22.8,0,0,0,15-12.57q2.491-5.145,2.492-13.05a31.44,31.44,0,0,0-2-12.19,16.225,16.225,0,0,0-6.012-7.37,24.812,24.812,0,0,0-10.129-3.57,96.954,96.954,0,0,0-14.354-.92h-21.45v75.83h13.866v-24.92h13.542A35.39,35.39,0,0,0,721.759,1078.9Zm-4.171-37.38a10.345,10.345,0,0,1,4.5,2.22,8.288,8.288,0,0,1,2.383,3.9,20.5,20.5,0,0,1,.7,5.74q0,7.59-3.3,10.67t-11,3.09h-11.7v-26.32h11.375A29.628,29.628,0,0,1,717.588,1041.52Zm79.733,50.11H761.9v-19.4h26.65V1058.8H761.9v-16.14h34.342v-13.43H747.705v75.83h49.616v-13.43Zm47.45,12.62a22.576,22.576,0,0,0,8.884-5.85,17.04,17.04,0,0,0,3.9-7.53,35.579,35.579,0,0,0,.866-7.48,17.687,17.687,0,0,0-1.408-7.2,21.307,21.307,0,0,0-3.521-5.58,22.658,22.658,0,0,0-4.6-4.01,25.645,25.645,0,0,0-4.767-2.49l-5.85-2.28q-5.308-2.055-9.316-3.3a58.934,58.934,0,0,1-6.663-2.44,11.223,11.223,0,0,1-4.008-2.76,6.511,6.511,0,0,1-1.354-4.39,5.962,5.962,0,0,1,1.137-3.68,8.669,8.669,0,0,1,3.033-2.49,15.292,15.292,0,0,1,4.388-1.41,30.862,30.862,0,0,1,5.308-.43q9.642,0,22.209,6.82l1.408-14.19a32.905,32.905,0,0,0-4.225-2.06,42.614,42.614,0,0,0-5.85-1.9q-3.25-.81-6.879-1.35a48.91,48.91,0,0,0-7.2-.54,34.827,34.827,0,0,0-12.242,1.95,24.9,24.9,0,0,0-8.558,5.14,20.5,20.5,0,0,0-4.984,7.26,22.439,22.439,0,0,0-1.625,8.4q0.325,6.93,3.467,10.83t9.967,6.72l4.333,1.84,10.183,3.59a35.041,35.041,0,0,1,4.171,1.64,19.433,19.433,0,0,1,3.9,2.39,12.1,12.1,0,0,1,2.925,3.32,8.22,8.22,0,0,1,1.138,4.3q0,8.265-13.542,8.27A39.767,39.767,0,0,1,815.25,1091a27.739,27.739,0,0,1-9.7-5.77l-1.625,15.82a34.672,34.672,0,0,0,10.291,3.9,63.3,63.3,0,0,0,14.842,1.63Q838.92,1106.58,844.771,1104.25Zm73.017-75.02H861.021v13.43h21.45v62.4h13.867v-62.4h21.45v-13.43Zm84.392,72.9-1.52-13.21a52.591,52.591,0,0,1-20.039,4.44,22.474,22.474,0,0,1-9.533-1.9,19.41,19.41,0,0,1-6.933-5.33,23.7,23.7,0,0,1-4.28-8.27,40,40,0,0,1,0-21.43,23.611,23.611,0,0,1,4.28-8.27,19.3,19.3,0,0,1,6.933-5.33,22.474,22.474,0,0,1,9.533-1.9,52.591,52.591,0,0,1,20.039,4.44l1.52-13.22q-9.21-4.44-21.559-4.44a39.182,39.182,0,0,0-15,2.82,33.537,33.537,0,0,0-11.808,8.01,37.7,37.7,0,0,0-7.746,12.46,44.265,44.265,0,0,0-2.817,16.14,45.021,45.021,0,0,0,2.763,16.14,36.465,36.465,0,0,0,7.746,12.46,34.106,34.106,0,0,0,11.862,8.02,39.182,39.182,0,0,0,15,2.82q12.351,0,21.559-4.45h0Zm78.65-34.99a44.765,44.765,0,0,0-2.76-16.03,36.6,36.6,0,0,0-7.75-12.46,34.694,34.694,0,0,0-11.86-8.07,38.674,38.674,0,0,0-15.01-2.87,39.2,39.2,0,0,0-15,2.82,33.563,33.563,0,0,0-11.81,8.01,37.523,37.523,0,0,0-7.74,12.46,44.244,44.244,0,0,0-2.82,16.14,45.065,45.065,0,0,0,2.76,16.14,36.5,36.5,0,0,0,7.75,12.46,34.061,34.061,0,0,0,11.86,8.02,39.2,39.2,0,0,0,15,2.82q16.47,0,26.87-10.84,10.515-10.83,10.51-28.6h0Zm-15.17,0a36.811,36.811,0,0,1-1.46,10.72,23.6,23.6,0,0,1-4.28,8.27,19.478,19.478,0,0,1-6.93,5.33,24.875,24.875,0,0,1-19.07,0,19.478,19.478,0,0,1-6.93-5.33,23.6,23.6,0,0,1-4.28-8.27,40.049,40.049,0,0,1,0-21.43,23.512,23.512,0,0,1,4.28-8.27,19.365,19.365,0,0,1,6.93-5.33,22.486,22.486,0,0,1,9.53-1.9q10.725,0,16.47,7.18,5.745,7.275,5.74,19.03h0Zm85.04-37.91h-13.86v48.96l-32.39-48.96H1090.8v75.83h13.86v-52l34.67,52h11.37v-75.83Zm64.57,0H1158.5v13.43h21.45v62.4h13.87v-62.4h21.45v-13.43Zm48.75,43.98a29.793,29.793,0,0,0,9.53-8.88q3.36-5.1,3.36-13.22,0-21.885-26.11-21.88h-27.73v75.83h13.87v-28.17h14.08l15.71,28.17h14.41Zm-4.77-29.63c2.1,1.84,3.15,4.68,3.15,8.5q0,5.85-3.25,8.83t-12.03,2.98h-10.18v-23.07h10.72Q1256.12,1040.82,1259.25,1043.58Zm99.67,23.56a44.765,44.765,0,0,0-2.76-16.03,36.6,36.6,0,0,0-7.75-12.46,34.6,34.6,0,0,0-11.86-8.07,38.66,38.66,0,0,0-15-2.87,39.212,39.212,0,0,0-15.01,2.82,33.563,33.563,0,0,0-11.81,8.01,37.849,37.849,0,0,0-7.74,12.46,44.244,44.244,0,0,0-2.82,16.14,45.065,45.065,0,0,0,2.76,16.14,36.657,36.657,0,0,0,7.75,12.46,34.061,34.061,0,0,0,11.86,8.02,39.212,39.212,0,0,0,15.01,2.82q16.455,0,26.86-10.84,10.515-10.83,10.51-28.6h0Zm-15.17,0a36.811,36.811,0,0,1-1.46,10.72,23.6,23.6,0,0,1-4.28,8.27,19.478,19.478,0,0,1-6.93,5.33,24.875,24.875,0,0,1-19.07,0,19.478,19.478,0,0,1-6.93-5.33,23.766,23.766,0,0,1-4.28-8.27,40.049,40.049,0,0,1,0-21.43,23.678,23.678,0,0,1,4.28-8.27,19.365,19.365,0,0,1,6.93-5.33,22.5,22.5,0,0,1,9.54-1.9q10.725,0,16.46,7.18,5.745,7.275,5.74,19.03h0Zm70.2,24.49h-31.2v-62.4h-13.86v75.83h45.06v-13.43Z" transform="translate(-685.312 -373)"/>
</svg>
