<?xml version="1.0" encoding="UTF-8"?>
<svg xmlns="http://www.w3.org/2000/svg" xmlns:xlink="http://www.w3.org/1999/xlink" width="px" height="60px" viewBox="0 0 60 60" version="1.1">
<g id="surface1">
<rect x="0" y="0" width="60" height="60" style="fill:rgb(100%,83.92157%,0%);fill-opacity:1;stroke:none;"/>
<path style=" stroke:none;fill-rule:nonzero;fill:rgb(0%,0%,0.392157%);fill-opacity:1;" d="M 39.230469 44.910156 C 40.382812 46.785156 41.636719 48.578125 44.292969 48.578125 C 46.523438 48.578125 47.691406 47.472656 47.691406 45.9375 C 47.691406 44.101562 46.480469 43.453125 44.027344 42.382812 L 42.683594 41.808594 C 38.800781 40.164062 36.21875 38.101562 36.21875 33.742188 C 36.21875 29.726562 39.296875 26.667969 44.101562 26.667969 C 47.523438 26.667969 49.980469 27.851562 51.753906 30.957031 L 47.5625 33.636719 C 46.640625 31.988281 45.644531 31.339844 44.101562 31.339844 C 42.523438 31.339844 41.523438 32.335938 41.523438 33.636719 C 41.523438 35.242188 42.523438 35.890625 44.832031 36.886719 L 46.179688 37.460938 C 50.753906 39.410156 53.332031 41.398438 53.332031 45.871094 C 53.332031 50.691406 49.527344 53.332031 44.417969 53.332031 C 39.417969 53.332031 36.578125 50.824219 35 47.71875 Z M 19.921875 45.046875 C 20.761719 46.558594 22.046875 47.71875 23.886719 47.71875 C 25.652344 47.71875 26.667969 47.023438 26.667969 44.316406 L 26.667969 26.667969 L 32.222656 26.667969 L 32.222656 45.167969 C 32.222656 50.78125 28.964844 53.332031 24.214844 53.332031 C 19.917969 53.332031 16.816406 50.421875 15.554688 47.71875 Z M 19.921875 45.046875 "/>
</g>
</svg>
