<?xml version="1.0" encoding="UTF-8"?>
<svg xmlns="http://www.w3.org/2000/svg" xmlns:xlink="http://www.w3.org/1999/xlink" width="px" height="60px" viewBox="0 0 151 60" version="1.1">
<g id="surface1">
<path style=" stroke:none;fill-rule:nonzero;fill:rgb(21.960784%,55.686277%,23.529412%);fill-opacity:1;" d="M 54.121094 22.433594 L 38.683594 30.988281 C 38.105469 31.304688 37.75 31.898438 37.75 32.539062 L 37.75 49.652344 C 37.75 50.292969 38.105469 50.882812 38.683594 51.203125 L 54.125 59.761719 C 54.699219 60.078125 55.414062 60.078125 55.988281 59.761719 L 71.425781 51.203125 C 72 50.882812 72.355469 50.292969 72.355469 49.652344 L 72.355469 32.539062 C 72.355469 31.898438 72 31.308594 71.417969 30.988281 L 55.988281 22.433594 C 55.695312 22.273438 55.371094 22.195312 55.050781 22.195312 C 54.726562 22.195312 54.40625 22.273438 54.117188 22.433594 M 133.542969 37.84375 L 130.972656 39.265625 C 130.871094 39.320312 130.816406 39.417969 130.816406 39.523438 L 130.816406 42.378906 C 130.816406 42.484375 130.875 42.582031 130.972656 42.636719 L 133.542969 44.0625 C 133.640625 44.117188 133.757812 44.117188 133.855469 44.0625 L 136.429688 42.636719 C 136.523438 42.582031 136.582031 42.484375 136.582031 42.378906 L 136.582031 39.523438 C 136.582031 39.417969 136.523438 39.320312 136.425781 39.265625 L 133.851562 37.84375 C 133.804688 37.8125 133.75 37.800781 133.699219 37.800781 C 133.644531 37.800781 133.589844 37.8125 133.542969 37.84375 Z M 133.542969 37.84375 "/>
<path style=" stroke:none;fill-rule:nonzero;fill:rgb(21.568628%,27.843139%,30.980393%);fill-opacity:1;" d="M 112.464844 4.296875 L 104.953125 0.0976562 C 104.714844 -0.0351562 104.425781 -0.03125 104.191406 0.105469 C 103.960938 0.246094 103.816406 0.492188 103.816406 0.765625 L 103.8125 26.128906 L 96.882812 22.289062 C 96.59375 22.128906 96.269531 22.050781 95.949219 22.050781 C 95.628906 22.050781 95.304688 22.128906 95.011719 22.289062 L 95.015625 22.289062 L 79.582031 30.84375 C 79 31.160156 78.644531 31.753906 78.644531 32.390625 L 78.644531 49.503906 C 78.644531 50.144531 79 50.734375 79.582031 51.054688 L 95.019531 59.613281 C 95.59375 59.929688 96.308594 59.929688 96.886719 59.613281 L 112.320312 51.054688 C 112.894531 50.734375 113.25 50.144531 113.25 49.503906 L 113.25 5.632812 C 113.25 5.078125 112.949219 4.566406 112.464844 4.296875 Z M 103.390625 45.542969 L 96.375 49.433594 C 96.113281 49.578125 95.789062 49.578125 95.53125 49.433594 L 88.511719 45.542969 C 88.242188 45.398438 88.082031 45.128906 88.082031 44.839844 L 88.082031 37.058594 C 88.082031 36.769531 88.242188 36.5 88.507812 36.351562 L 95.527344 32.464844 C 95.660156 32.390625 95.800781 32.359375 95.949219 32.359375 C 96.097656 32.359375 96.242188 32.394531 96.371094 32.464844 L 103.386719 36.351562 C 103.652344 36.5 103.8125 36.769531 103.8125 37.0625 L 103.8125 44.84375 C 103.8125 45.128906 103.652344 45.398438 103.390625 45.542969 Z M 103.390625 45.542969 "/>
<path style=" stroke:none;fill-rule:nonzero;fill:rgb(18.039216%,49.019608%,19.607843%);fill-opacity:1;" d="M 54.121094 22.433594 L 37.75 49.652344 C 37.75 50.292969 38.105469 50.882812 38.683594 51.203125 L 54.125 59.761719 C 54.699219 60.078125 55.414062 60.078125 55.988281 59.761719 L 72.355469 32.539062 C 72.355469 31.898438 72 31.308594 71.417969 30.988281 L 55.988281 22.433594 C 55.695312 22.273438 55.371094 22.195312 55.050781 22.195312 C 54.726562 22.195312 54.40625 22.273438 54.117188 22.433594 "/>
<path style=" stroke:none;fill-rule:nonzero;fill:rgb(29.803923%,68.627453%,31.37255%);fill-opacity:1;" d="M 54.121094 22.433594 L 38.683594 30.988281 C 38.105469 31.304688 37.75 31.898438 37.75 32.539062 L 54.121094 59.761719 C 54.695312 60.078125 55.410156 60.078125 55.988281 59.761719 L 71.421875 51.203125 C 72 50.882812 72.355469 50.292969 72.355469 49.652344 L 55.988281 22.433594 C 55.695312 22.273438 55.371094 22.195312 55.050781 22.195312 C 54.726562 22.195312 54.40625 22.273438 54.117188 22.433594 "/>
<path style=" stroke:none;fill-rule:nonzero;fill:rgb(21.568628%,27.843139%,30.980393%);fill-opacity:1;" d="M 150.066406 30.84375 L 134.632812 22.289062 C 134.34375 22.128906 134.019531 22.050781 133.699219 22.050781 C 133.378906 22.050781 133.050781 22.128906 132.765625 22.289062 L 117.332031 30.84375 C 116.753906 31.160156 116.394531 31.765625 116.394531 32.425781 L 116.394531 49.472656 C 116.394531 50.132812 116.753906 50.738281 117.332031 51.058594 L 132.769531 59.617188 C 133.347656 59.9375 134.058594 59.9375 134.636719 59.617188 L 141.753906 55.667969 C 142.40625 55.308594 142.402344 54.371094 141.75 54.011719 L 126.257812 45.546875 C 125.996094 45.398438 125.832031 45.125 125.832031 44.828125 L 125.832031 37.0625 C 125.832031 36.769531 125.992188 36.503906 126.242188 36.363281 L 133.273438 32.472656 L 133.269531 32.472656 C 133.402344 32.398438 133.546875 32.363281 133.695312 32.363281 C 133.84375 32.363281 133.988281 32.402344 134.121094 32.472656 L 141.148438 36.367188 C 141.402344 36.507812 141.558594 36.773438 141.558594 37.0625 L 141.558594 43.402344 C 141.558594 43.671875 141.703125 43.925781 141.941406 44.0625 C 142.175781 44.191406 142.464844 44.191406 142.699219 44.058594 L 150.246094 39.667969 C 150.710938 39.398438 151 38.898438 151 38.355469 L 151 32.433594 C 151 31.769531 150.640625 31.160156 150.066406 30.84375 Z M 33.667969 30.84375 L 18.238281 22.289062 C 17.945312 22.128906 17.621094 22.050781 17.300781 22.050781 C 16.980469 22.050781 16.65625 22.128906 16.367188 22.289062 L 0.933594 30.84375 C 0.359375 31.160156 0 31.765625 0 32.425781 L 0 55.945312 C 0 56.214844 0.144531 56.464844 0.378906 56.601562 C 0.617188 56.734375 0.90625 56.734375 1.140625 56.597656 L 8.6875 52.210938 C 9.152344 51.941406 9.4375 51.4375 9.4375 50.898438 L 9.4375 37.058594 C 9.4375 36.769531 9.59375 36.5 9.847656 36.363281 L 16.878906 32.46875 C 17.007812 32.394531 17.152344 32.359375 17.300781 32.359375 C 17.449219 32.359375 17.59375 32.398438 17.726562 32.46875 L 24.757812 36.363281 C 25.007812 36.503906 25.167969 36.769531 25.167969 37.0625 L 25.167969 50.898438 C 25.167969 51.441406 25.453125 51.941406 25.921875 52.214844 L 33.464844 56.601562 C 33.703125 56.738281 33.992188 56.738281 34.226562 56.605469 C 34.460938 56.464844 34.605469 56.214844 34.605469 55.945312 L 34.605469 32.429688 C 34.605469 31.769531 34.246094 31.160156 33.667969 30.84375 Z M 33.667969 30.84375 "/>
</g>
</svg>
