<?xml version="1.0" encoding="UTF-8"?>
<svg xmlns="http://www.w3.org/2000/svg" xmlns:xlink="http://www.w3.org/1999/xlink" width="px" height="60px" viewBox="0 0 62 60" version="1.1">
<g id="surface1">
<path style=" stroke:none;fill-rule:nonzero;fill:rgb(0%,11.764706%,21.176471%);fill-opacity:1;" d="M 11.324219 0 L 50.910156 0 C 56.910156 0 61.761719 4.867188 61.761719 10.886719 L 61.761719 49.046875 C 61.761719 55.066406 56.910156 59.933594 50.910156 59.933594 L 11.324219 59.933594 C 5.324219 59.933594 0.472656 55.066406 0.472656 49.046875 L 0.472656 10.886719 C 0.472656 4.867188 5.324219 0 11.324219 0 Z M 11.324219 0 "/>
<path style=" stroke:none;fill-rule:nonzero;fill:rgb(19.215687%,65.882355%,100%);fill-opacity:1;" d="M 14.261719 42.03125 L 14.261719 15.675781 C 14.261719 15.496094 14.339844 15.394531 14.519531 15.394531 C 14.953125 15.394531 15.359375 15.394531 15.949219 15.367188 C 16.5625 15.34375 17.199219 15.34375 17.890625 15.316406 C 18.578125 15.289062 19.320312 15.289062 20.109375 15.265625 C 20.902344 15.238281 21.667969 15.238281 22.433594 15.238281 C 24.527344 15.238281 26.265625 15.496094 27.695312 16.035156 C 28.972656 16.46875 30.148438 17.1875 31.117188 18.132812 C 31.933594 18.953125 32.574219 19.953125 32.980469 21.054688 C 33.363281 22.128906 33.570312 23.230469 33.570312 24.382812 C 33.570312 26.585938 33.058594 28.402344 32.035156 29.839844 C 31.015625 31.273438 29.585938 32.347656 27.925781 32.964844 C 26.1875 33.605469 24.273438 33.835938 22.179688 33.835938 C 21.566406 33.835938 21.15625 33.835938 20.902344 33.808594 C 20.648438 33.78125 20.289062 33.78125 19.804688 33.78125 L 19.804688 42.003906 C 19.828125 42.183594 19.703125 42.335938 19.523438 42.363281 C 19.496094 42.363281 19.472656 42.363281 19.421875 42.363281 L 14.570312 42.363281 C 14.363281 42.363281 14.261719 42.261719 14.261719 42.03125 Z M 19.828125 20.335938 L 19.828125 28.941406 C 20.1875 28.96875 20.519531 28.992188 20.824219 28.992188 L 22.179688 28.992188 C 23.175781 28.992188 24.171875 28.839844 25.117188 28.53125 C 25.933594 28.300781 26.648438 27.816406 27.210938 27.175781 C 27.746094 26.535156 28 25.664062 28 24.535156 C 28.027344 23.742188 27.824219 22.949219 27.414062 22.257812 C 26.980469 21.589844 26.367188 21.078125 25.625 20.796875 C 24.683594 20.414062 23.660156 20.257812 22.613281 20.285156 C 21.949219 20.285156 21.363281 20.285156 20.875 20.3125 C 20.367188 20.285156 20.007812 20.3125 19.828125 20.335938 Z M 19.828125 20.335938 "/>
<path style=" stroke:none;fill-rule:nonzero;fill:rgb(19.215687%,65.882355%,100%);fill-opacity:1;" d="M 49.503906 27.378906 C 48.738281 26.96875 47.921875 26.6875 47.054688 26.507812 C 46.109375 26.304688 45.164062 26.175781 44.191406 26.175781 C 43.683594 26.148438 43.144531 26.226562 42.660156 26.355469 C 42.328125 26.433594 42.046875 26.609375 41.867188 26.867188 C 41.742188 27.074219 41.664062 27.328125 41.664062 27.558594 C 41.664062 27.789062 41.765625 28.019531 41.917969 28.226562 C 42.148438 28.507812 42.457031 28.738281 42.789062 28.917969 C 43.375 29.222656 43.988281 29.503906 44.601562 29.761719 C 45.980469 30.222656 47.308594 30.863281 48.535156 31.632812 C 49.375 32.167969 50.066406 32.886719 50.550781 33.757812 C 50.960938 34.578125 51.164062 35.472656 51.140625 36.394531 C 51.164062 37.597656 50.808594 38.804688 50.144531 39.800781 C 49.429688 40.828125 48.433594 41.621094 47.28125 42.082031 C 46.03125 42.621094 44.5 42.902344 42.660156 42.902344 C 41.484375 42.902344 40.335938 42.796875 39.1875 42.566406 C 38.292969 42.414062 37.398438 42.132812 36.582031 41.75 C 36.402344 41.644531 36.277344 41.464844 36.300781 41.261719 L 36.300781 36.804688 C 36.300781 36.726562 36.328125 36.625 36.402344 36.574219 C 36.480469 36.523438 36.558594 36.550781 36.632812 36.601562 C 37.628906 37.1875 38.675781 37.597656 39.800781 37.855469 C 40.769531 38.113281 41.792969 38.238281 42.8125 38.238281 C 43.785156 38.238281 44.472656 38.113281 44.933594 37.878906 C 45.339844 37.703125 45.621094 37.265625 45.621094 36.804688 C 45.621094 36.445312 45.417969 36.113281 45.011719 35.78125 C 44.601562 35.449219 43.757812 35.0625 42.507812 34.578125 C 41.203125 34.117188 40.003906 33.5 38.878906 32.734375 C 38.089844 32.167969 37.425781 31.425781 36.941406 30.554688 C 36.53125 29.734375 36.328125 28.839844 36.351562 27.941406 C 36.351562 26.84375 36.660156 25.792969 37.222656 24.84375 C 37.859375 23.820312 38.804688 23 39.902344 22.488281 C 41.101562 21.875 42.609375 21.589844 44.421875 21.589844 C 45.46875 21.589844 46.542969 21.667969 47.589844 21.820312 C 48.355469 21.925781 49.097656 22.128906 49.785156 22.410156 C 49.886719 22.4375 49.988281 22.539062 50.039062 22.640625 C 50.066406 22.742188 50.09375 22.847656 50.09375 22.949219 L 50.09375 27.125 C 50.09375 27.226562 50.039062 27.328125 49.964844 27.378906 C 49.734375 27.429688 49.605469 27.429688 49.503906 27.378906 Z M 49.503906 27.378906 "/>
</g>
</svg>
