<?xml version="1.0" encoding="UTF-8"?>
<svg xmlns="http://www.w3.org/2000/svg" xmlns:xlink="http://www.w3.org/1999/xlink" width="px" height="60px" viewBox="0 0 60 60" version="1.1">
<g id="surface1">
<path style=" stroke:none;fill-rule:nonzero;fill:rgb(0%,0%,35.686275%);fill-opacity:1;" d="M 10.785156 0.851562 L 48.660156 0.851562 C 54.402344 0.851562 59.046875 5.613281 59.046875 11.503906 L 59.046875 48.84375 C 59.046875 54.734375 54.402344 59.496094 48.660156 59.496094 L 10.785156 59.496094 C 5.042969 59.496094 0.402344 54.734375 0.402344 48.84375 L 0.402344 11.503906 C 0.402344 5.613281 5.042969 0.851562 10.785156 0.851562 Z M 10.785156 0.851562 "/>
<path style=" stroke:none;fill-rule:nonzero;fill:rgb(60.000002%,60.000002%,100%);fill-opacity:1;" d="M 14.328125 41.953125 L 14.328125 16.136719 C 14.328125 15.964844 14.402344 15.863281 14.574219 15.863281 C 14.988281 15.863281 15.378906 15.863281 15.941406 15.835938 C 16.527344 15.8125 17.140625 15.8125 17.800781 15.789062 C 18.460938 15.761719 19.167969 15.761719 19.925781 15.738281 C 20.683594 15.710938 21.414062 15.710938 22.148438 15.710938 C 24.152344 15.710938 25.8125 15.964844 27.183594 16.488281 C 28.402344 16.914062 29.527344 17.617188 30.457031 18.542969 C 31.238281 19.347656 31.847656 20.324219 32.242188 21.402344 C 32.605469 22.453125 32.800781 23.53125 32.800781 24.660156 C 32.800781 26.816406 32.3125 28.59375 31.335938 29.996094 C 30.359375 31.402344 28.992188 32.453125 27.402344 33.054688 C 25.742188 33.679688 23.90625 33.90625 21.90625 33.90625 C 21.316406 33.90625 20.925781 33.90625 20.683594 33.882812 C 20.4375 33.855469 20.097656 33.855469 19.632812 33.855469 L 19.632812 41.902344 C 19.65625 42.078125 19.535156 42.226562 19.363281 42.253906 L 14.621094 42.253906 C 14.425781 42.253906 14.328125 42.152344 14.328125 41.925781 Z M 19.65625 20.726562 L 19.65625 29.144531 C 20 29.171875 20.316406 29.195312 20.609375 29.195312 L 21.90625 29.195312 C 22.859375 29.195312 23.808594 29.046875 24.714844 28.746094 C 25.496094 28.519531 26.179688 28.042969 26.71875 27.414062 C 27.230469 26.789062 27.476562 25.9375 27.476562 24.835938 C 27.5 24.058594 27.304688 23.28125 26.914062 22.605469 C 26.5 21.953125 25.910156 21.453125 25.203125 21.175781 C 24.300781 20.800781 23.320312 20.648438 22.320312 20.675781 C 21.683594 20.675781 21.121094 20.675781 20.660156 20.699219 C 20.167969 20.675781 19.828125 20.699219 19.65625 20.726562 Z M 19.65625 20.726562 "/>
<path style=" stroke:none;fill-rule:nonzero;fill:rgb(60.000002%,60.000002%,100%);fill-opacity:1;" d="M 36.320312 22.203125 L 40.597656 22.203125 C 40.839844 22.203125 41.035156 22.378906 41.109375 22.605469 C 41.183594 22.804688 41.230469 23.003906 41.257812 23.230469 C 41.304688 23.480469 41.355469 23.757812 41.378906 24.007812 C 41.402344 24.285156 41.429688 24.585938 41.429688 24.910156 C 42.160156 24.03125 43.039062 23.304688 44.042969 22.753906 C 45.167969 22.101562 46.460938 21.777344 47.757812 21.777344 C 47.925781 21.753906 48.074219 21.878906 48.097656 22.054688 L 48.097656 27.039062 C 48.097656 27.242188 47.976562 27.316406 47.707031 27.316406 C 46.828125 27.289062 45.921875 27.367188 45.070312 27.566406 C 44.359375 27.714844 43.675781 27.941406 43.015625 28.242188 C 42.550781 28.46875 42.113281 28.769531 41.769531 29.171875 L 41.769531 41.953125 C 41.769531 42.203125 41.671875 42.300781 41.453125 42.300781 L 36.636719 42.300781 C 36.441406 42.328125 36.273438 42.203125 36.246094 42 L 36.246094 28.015625 C 36.246094 27.414062 36.246094 26.789062 36.222656 26.136719 C 36.199219 25.484375 36.199219 24.835938 36.175781 24.183594 C 36.175781 23.605469 36.125 23.054688 36.078125 22.480469 C 36.050781 22.355469 36.125 22.226562 36.246094 22.203125 C 36.246094 22.179688 36.296875 22.179688 36.320312 22.203125 Z M 36.320312 22.203125 "/>
</g>
</svg>
