<?xml version="1.0" encoding="UTF-8"?>
<svg xmlns="http://www.w3.org/2000/svg" xmlns:xlink="http://www.w3.org/1999/xlink" width="px" height="60px" viewBox="0 0 60 60" version="1.1">
<g id="surface1">
<path style=" stroke:none;fill-rule:nonzero;fill:rgb(0.784314%,46.666667%,74.117649%);fill-opacity:1;" d="M 30.765625 0 C 28.308594 0.0078125 26.605469 0.222656 24.550781 0.578125 C 18.472656 1.636719 17.367188 3.859375 17.367188 7.953125 L 17.367188 14.210938 L 31.578125 14.210938 L 31.578125 17.367188 L 9.957031 17.367188 C 5.796875 17.367188 2.15625 19.328125 1 24.03125 C -0.304688 29.425781 -0.363281 32.804688 1 38.4375 C 2.035156 42.640625 4.3125 45.789062 8.476562 45.789062 L 14.210938 45.789062 L 14.210938 37.730469 C 14.210938 33.046875 18.453125 28.421875 23.3125 28.421875 L 34.738281 28.421875 C 38.71875 28.421875 42.632812 25.480469 42.632812 21.511719 L 42.632812 7.953125 C 42.632812 4.101562 39.855469 1.222656 35.972656 0.578125 C 36.066406 0.566406 33.199219 -0.0078125 30.765625 0 Z M 22.894531 6.316406 C 24.191406 6.316406 25.261719 7.386719 25.261719 8.6875 C 25.261719 10.003906 24.191406 11.050781 22.894531 11.050781 C 21.574219 11.050781 20.527344 10.003906 20.527344 8.6875 C 20.527344 7.390625 21.574219 6.316406 22.894531 6.316406 Z M 22.894531 6.316406 "/>
<path style=" stroke:none;fill-rule:nonzero;fill:rgb(100%,75.686276%,2.745098%);fill-opacity:1;" d="M 29.234375 60 C 31.6875 59.992188 33.390625 59.777344 35.449219 59.421875 C 41.523438 58.363281 42.632812 56.140625 42.632812 52.046875 L 42.632812 45.789062 L 28.421875 45.789062 L 28.421875 42.632812 L 50.042969 42.632812 C 54.203125 42.632812 57.84375 40.671875 59 35.96875 C 60.304688 30.574219 60.363281 27.195312 59 21.5625 C 57.964844 17.359375 55.6875 14.210938 51.523438 14.210938 L 45.789062 14.210938 L 45.789062 22.269531 C 45.789062 26.953125 41.546875 31.578125 36.6875 31.578125 L 25.261719 31.578125 C 21.277344 31.578125 17.367188 34.519531 17.367188 38.488281 L 17.367188 52.046875 C 17.367188 55.898438 20.144531 58.777344 24.027344 59.421875 C 23.929688 59.433594 26.800781 60.007812 29.234375 60 Z M 37.105469 53.683594 C 35.808594 53.683594 34.738281 52.613281 34.738281 51.3125 C 34.738281 49.996094 35.808594 48.949219 37.105469 48.949219 C 38.425781 48.949219 39.472656 49.996094 39.472656 51.3125 C 39.472656 52.609375 38.425781 53.683594 37.105469 53.683594 Z M 37.105469 53.683594 "/>
</g>
</svg>
