<?xml version="1.0" encoding="UTF-8"?>
<svg xmlns="http://www.w3.org/2000/svg" xmlns:xlink="http://www.w3.org/1999/xlink" width="px" height="60px" viewBox="0 0 59 59" version="1.1">
<g id="surface1">
<path style="fill:none;stroke-width:2;stroke-linecap:butt;stroke-linejoin:round;stroke:rgb(98.039216%,98.039216%,98.039216%);stroke-opacity:1;stroke-miterlimit:10;" d="M 15.718485 60.998411 L 1.001589 1.001589 L 59.998411 18.106594 Z M 15.718485 60.998411 " transform="matrix(0.967213,0,0,0.951613,0,0)"/>
<path style="fill:none;stroke-width:2;stroke-linecap:butt;stroke-linejoin:round;stroke:rgb(98.039216%,98.039216%,98.039216%);stroke-opacity:1;stroke-miterlimit:10;" d="M 30.487884 9.556144 L 37.842293 39.562765 L 8.360037 31.00821 Z M 30.487884 9.556144 " transform="matrix(0.967213,0,0,0.951613,0,0)"/>
<path style="fill:none;stroke-width:2;stroke-linecap:butt;stroke-linejoin:round;stroke:rgb(98.039216%,98.039216%,98.039216%);stroke-opacity:1;stroke-miterlimit:10;" d="M 23.173861 35.076139 L 19.518869 20.171345 L 34.167108 24.403469 Z M 23.173861 35.076139 " transform="matrix(0.967213,0,0,0.951613,0,0)"/>
<path style="fill:none;stroke-width:2;stroke-linecap:butt;stroke-linejoin:round;stroke:rgb(98.039216%,98.039216%,98.039216%);stroke-opacity:1;stroke-miterlimit:10;" d="M 15.867916 5.282971 L 19.518869 20.187765 L 4.87063 15.955641 Z M 15.867916 5.282971 " transform="matrix(0.967213,0,0,0.951613,0,0)"/>
<path style="fill:none;stroke-width:2;stroke-linecap:butt;stroke-linejoin:round;stroke:rgb(98.039216%,98.039216%,98.039216%);stroke-opacity:1;stroke-miterlimit:10;" d="M 45.160355 13.780058 L 48.815347 28.684852 L 34.167108 24.452728 Z M 45.160355 13.780058 " transform="matrix(0.967213,0,0,0.951613,0,0)"/>
<path style="fill:none;stroke-width:2;stroke-linecap:butt;stroke-linejoin:round;stroke:rgb(98.039216%,98.039216%,98.039216%);stroke-opacity:1;stroke-miterlimit:10;" d="M 23.173861 35.088453 L 26.828853 49.997352 L 12.180614 45.761123 Z M 23.173861 35.088453 " transform="matrix(0.967213,0,0,0.951613,0,0)"/>
</g>
</svg>
