<?xml version="1.0" encoding="UTF-8"?>
<svg xmlns="http://www.w3.org/2000/svg" xmlns:xlink="http://www.w3.org/1999/xlink" width="px" height="60px" viewBox="0 0 60 60" version="1.1">
<defs>
<linearGradient id="linear0" gradientUnits="userSpaceOnUse" x1="-0.496858" y1="-1.99278" x2="39.983398" y2="47.000301" >
<stop offset="0" style="stop-color:rgb(25.490196%,81.960784%,100%);stop-opacity:1;"/>
<stop offset="1" style="stop-color:rgb(74.117647%,20.392157%,99.607843%);stop-opacity:1;"/>
</linearGradient>
<linearGradient id="linear1" gradientUnits="userSpaceOnUse" x1="28.4009" y1="1.12299" x2="34.730801" y2="44.600101" >
<stop offset="0" style="stop-color:rgb(100%,91.764706%,51.372549%);stop-opacity:1;"/>
<stop offset="0.0833333" style="stop-color:rgb(100%,86.666667%,20.784314%);stop-opacity:1;"/>
<stop offset="1" style="stop-color:rgb(100%,65.882353%,0%);stop-opacity:1;"/>
</linearGradient>
</defs>
<g id="surface1">
<path style=" stroke:none;fill-rule:nonzero;fill:url(#linear0);" d="M 59.800781 8.878906 L 31.617188 59.21875 C 31.035156 60.257812 29.539062 60.261719 28.949219 59.226562 L 0.203125 8.886719 C -0.4375 7.757812 0.527344 6.394531 1.804688 6.621094 L 30.019531 11.660156 C 30.199219 11.691406 30.382812 11.691406 30.566406 11.65625 L 58.191406 6.628906 C 59.464844 6.398438 60.433594 7.75 59.800781 8.878906 Z M 59.800781 8.878906 "/>
<path style=" stroke:none;fill-rule:nonzero;fill:url(#linear1);" d="M 43.460938 0.015625 L 22.601562 4.097656 C 22.261719 4.164062 22.007812 4.453125 21.984375 4.800781 L 20.703125 26.445312 C 20.671875 26.953125 21.140625 27.351562 21.640625 27.234375 L 27.445312 25.898438 C 27.988281 25.769531 28.480469 26.25 28.367188 26.796875 L 26.644531 35.234375 C 26.527344 35.800781 27.0625 36.285156 27.617188 36.117188 L 31.203125 35.03125 C 31.757812 34.859375 32.292969 35.347656 32.175781 35.917969 L 29.433594 49.171875 C 29.261719 50 30.367188 50.453125 30.828125 49.742188 L 31.136719 49.265625 L 48.132812 15.390625 C 48.414062 14.824219 47.925781 14.175781 47.300781 14.296875 L 41.324219 15.449219 C 40.761719 15.554688 40.285156 15.035156 40.441406 14.484375 L 44.34375 0.976562 C 44.503906 0.425781 44.023438 -0.09375 43.460938 0.015625 Z M 43.460938 0.015625 "/>
</g>
</svg>
