<?xml version="1.0" encoding="UTF-8" standalone="no"?>
<!DOCTYPE svg PUBLIC "-//W3C//DTD SVG 1.1//EN" "http://www.w3.org/Graphics/SVG/1.1/DTD/svg11.dtd">
<svg width="100%" height="100%" viewBox="0 0 1080 1080" version="1.1" xmlns="http://www.w3.org/2000/svg" xmlns:xlink="http://www.w3.org/1999/xlink" xml:space="preserve" xmlns:serif="http://www.serif.com/" style="fill-rule:evenodd;clip-rule:evenodd;stroke-linejoin:round;stroke-miterlimit:2;">
    <g id="Thick-dark">
        <path id="LJ-Base" serif:id="LJ Base" d="M261.637,527.255C210.311,540.596 158.233,545.997 108.957,545C106.861,544.958 105.639,543.736 105.422,543.519C104.971,543.067 104.595,542.521 104.348,541.932C104.228,541.645 103.538,539.996 104.348,538.04C104.463,537.761 105.132,536.147 107.012,535.376C107.619,535.127 108.293,535.085 108.943,535C110.376,534.813 145.084,535.008 191.559,526.946C212.375,523.335 237.207,517.804 264.161,509.138C270.023,469.086 277.266,432.188 281.382,411.89C281.819,409.73 292.676,364.168 305.026,320.101C322.008,259.506 336.622,214.655 338.107,210.767C351.751,175.046 368.137,150.867 371.403,146.047C416.206,79.932 473.288,60.77 511.754,76.249C560.403,95.826 576.815,158.392 560.769,236.464C546.708,304.875 507.523,383.647 448.621,432.888C406.108,468.427 358.499,494.48 309.116,512.487C284.54,632.45 293.873,669.493 296.786,680.11C301.711,698.063 312.887,717.785 340.139,726.426C351.344,729.979 363.813,730.216 365.895,730.256C382.956,730.581 407.479,727.042 431.532,714.639C460.953,699.467 511.69,668.18 586.2,595.67C586.233,595.639 603.451,578.168 627.067,551.58C678.215,493.996 716.798,441.997 730.306,423.699C762.383,380.246 783.917,347.532 788.027,340.752C789.118,338.58 791.261,335.592 795.322,333.78C801.388,331.074 806.58,333.355 807.47,333.746C808.413,334.161 813.993,336.613 815.894,343.479C816.525,345.757 816.441,347.746 816.426,348.119C816.412,348.436 816.382,348.752 816.342,349.066C816.345,349.067 816.348,349.067 816.351,349.067C816.009,356.21 812.019,441.542 801.705,537.698C800.971,544.541 800.237,551.175 799.507,557.599C812.575,554.044 825.73,550.929 838.884,548.224C915.718,532.427 971.488,534.959 971.678,535.001C972.32,535.141 973.001,535.163 973.604,535.424C973.88,535.544 975.474,536.235 976.235,538.121C976.351,538.409 977.02,540.069 976.186,542.004C976.067,542.281 975.379,543.879 973.489,544.635C972.879,544.879 972.205,544.918 971.553,545C971.544,545.001 925.553,544.661 859.559,559.166C840.991,563.247 819.77,568.754 797.339,576.157C791.947,621.095 786.922,654.203 783.585,674.965C783.31,676.674 782.966,678.816 779.309,696.181C771.207,734.665 764.079,763.04 756.342,790.073C728.679,886.728 703.267,926.072 684.077,949.617C624.662,1022.51 554.012,1016.97 527.126,955.028C514.373,925.646 513.956,890.595 516.162,860.548C527.652,704.097 631.795,616.57 753.232,572.26C758.351,543.927 764.158,509.482 770.217,469.167C773.933,444.444 777.016,422.146 779.465,403.526C762.975,425.367 741.172,453.271 715.5,483.99C699.409,503.246 655.862,555.452 601.465,608.716C594.754,615.287 547.065,666.471 490.018,707.929C465.668,725.625 445.195,737.678 433.723,743.082C405.199,756.52 367.379,764.047 333.708,755.77C319.692,752.324 270.476,739.125 258.122,669.465C251.166,630.247 255.171,576.277 261.637,527.255ZM313.868,490.2C351.175,473.619 390.163,450.573 426.718,418.427C435.43,410.766 470.938,380.71 499.817,317.799C538.329,233.907 540.337,144.675 506.447,119.112C497.334,112.238 489.209,112.102 485.34,112.2C471.663,112.545 453.56,119.93 435.044,137.479C403.001,167.848 386.545,212.417 381.338,226.604L381.339,226.604C377.909,237.586 364.733,282.06 349.396,342.91C347.905,348.823 339.669,380.455 330.609,420.787C329.761,424.56 325.569,439.991 319.56,465.362C317.521,473.973 315.626,482.248 313.868,490.2ZM749.111,594.578C673.206,627.888 595.186,684.548 564.258,780.526C560.727,791.484 548.759,829.442 550.468,884.347C551.866,929.305 565.778,957.003 585.11,961.683C603.114,966.041 626.211,952.286 646.371,927.862C663.212,907.46 674.375,884.794 683.649,861.52C701.484,816.763 714.004,765.223 723.45,721.424C729.709,692.404 734.006,668.231 734.186,667.36C735.025,663.296 740.802,638.591 749.111,594.578Z" style="fill:rgb(17,17,17);"/>
        <g id="J-Top" serif:id="J Top" transform="matrix(1,0,0,1,12.5956,-8.24738)">
            <path d="M1025.69,290.215C1025.86,290.801 1026.83,294.151 1024.82,297.788C1024.2,298.909 1023.36,299.937 1022.37,300.741C1021.34,301.57 1020.09,302.081 1018.87,302.594C1018.35,302.813 1000.32,308.336 998.703,308.83C850.83,354.111 709.865,387.044 559.418,397.881C557.598,398.013 555.698,397.724 555.378,397.676C549.499,396.784 545.69,393.34 545.009,392.723C544.327,392.107 540.518,388.662 539.041,382.903C538.023,378.933 538.542,375.528 538.639,374.893C539.531,369.034 542.976,365.224 543.592,364.544C544.209,363.861 547.653,360.053 553.411,358.557C556.288,357.81 556.318,357.966 559.287,357.877C723.967,352.965 876.295,319.737 1013.31,283.382C1015.24,282.87 1015.26,282.8 1017.25,283.008C1021.28,283.43 1023.47,286.177 1023.84,286.648C1025.11,288.242 1025.13,288.26 1025.69,290.215Z" style="fill:rgb(17,17,17);"/>
        </g>
    </g>
</svg>
